<?xml version="1.0" encoding="UTF-8"?> <svg xmlns="http://www.w3.org/2000/svg" width="551" height="399" viewBox="0 0 551 399" fill="none"><style> #Group_4 { animation: Group_4 15s infinite linear; transform-origin: center; transform-box: fill-box; } @keyframes Group_4 { 0% { transform: translateY(50px); opacity:0; } 25% { transform: translateY(25px); opacity:0; } 30% { transform: translateY(20px); opacity:0; } 35% { transform: translateY(15px); opacity:0; } 40% { transform: translateY(10px); opacity:1; } 45% { transform: translateY(5px); opacity:1; } 50% { transform: translateY(0px); opacity:0; } 55% { transform: translateY(0px); opacity:0; } 75% { transform: translateY(-20px); opacity:0; } 100% { transform: translateY(50px); opacity:0; } } #Group_6 { animation: Group_6 8s infinite linear; transform-origin: center; transform-box: fill-box; } @keyframes Group_6 { 0% { transform: translateY(20px); opacity:0; } 25% { transform: translateY(15px); opacity:0; } 50% { transform: translateY(10px); opacity:0; } 55% { transform: translateY(10px); opacity:1; } 75% { transform: translateY(5px); opacity:1; } 85% { transform: translateY(5px); opacity:0; } 100% { transform: translateY(0px); opacity:0; } } #Group_8 { animation: Group_8 8s infinite linear; transform-origin: center; transform-box: fill-box; } @keyframes Group_8 { 0% { transform: translateY(30px); } 25% { transform: translateY(15px); opacity:1; } 50% { transform: translateY(0px); opacity:1; } 55% { transform: translateY(0px); opacity:0; } 75% { transform: translateY(-20px); opacity:0; } 100% { transform: translateY(30px); opacity:0; } } #Vector_60 { animation: Vector_60 10s infinite linear; transform-origin: center; transform-box: fill-box; } @keyframes Vector_60 { 0% { transform: rotate(0deg); } 25% { transform: rotate(-5deg); } 50% { transform: rotate(-10deg); } 75% { transform: rotate(-5deg); } 100% { transform: rotate(0deg); } } #Vector_43 { animation: Vector_43 10s infinite linear; transform-origin: center; transform-box: fill-box; } @keyframes Vector_43 { 0% { transform: rotate(0deg); } 25% { transform: rotate(5deg); } 50% { transform: rotate(10deg); } 75% { transform: rotate(5deg); } 100% { transform: rotate(0deg); } } #Group_17 { animation: Group_17 5s infinite linear; transform-origin: center; transform-box: fill-box; } @keyframes Group_17 { 0% { transform: rotate(0deg); } 25% { transform: rotate(5deg); } 50% { transform: rotate(10deg); } 75% { transform: rotate(5deg); } 100% { transform: rotate(0deg); } } #Group_31 { animation: Group_31 5s infinite linear; transform-origin: center; transform-box: fill-box; } @keyframes Group_31 { 0% { transform: rotateY(0deg); } 25% { transform: rotateY(5deg); } 50% { transform: rotateY(10deg); } 75% { transform: rotateY(5deg); } 100% { transform: rotateY(0deg); } } #Group_43 { animation: Group_43 5s infinite linear; transform-origin: center; transform-box: fill-box; } @keyframes Group_43 { 0% { transform: rotateZ(0deg); } 25% { transform: roatateZ(-4deg); } 50% { transform: rotateZ(-8deg); } 75% { transform: rotateZ(-4deg); } 100% { transform: rotateZ(0deg); } } #Group_44 { animation: Group_44 5s infinite linear; transform-origin: center; transform-box: fill-box; } @keyframes Group_44 { 0% { transform: rotateZ(0deg); } 25% { transform: roatateZ(-3deg); } 50% { transform: rotateZ(-6deg); } 75% { transform: rotateZ(-3deg); } 100% { transform: rotateZ(0deg); } } #Group_45 { animation: Group_45 10s infinite linear; transform-origin: center; transform-box: fill-box; } @keyframes Group_45 { 0% { transform: rotateZ(0deg); } 25% { transform: roatateZ(-5deg); } 50% { transform: rotateZ(-10deg); } 75% { transform: rotateZ(-5deg); } 100% { transform: rotateZ(0deg); } } #Group_47 { animation: Group_47 10s infinite linear; transform-origin: center; transform-box: fill-box; } @keyframes Group_47 { 0% { transform: rotateZ(0deg); } 25% { transform: roatateZ(-5deg); } 50% { transform: rotateZ(-10deg); } 75% { transform: rotateZ(-5deg); } 100% { transform: rotateZ(0deg); } } </style><g id="About-us 1" clip-path="url(#clip0)"><g id="Group"><g id="Group_2"><g id="Group_3"><g id="Group_4"><path id="Vector" d="M255.863 108.161L248.63 66.6024C248.499 65.67 248.035 64.8163 247.324 64.1987C246.613 63.5811 245.702 63.2411 244.76 63.2415L177.856 63.9824C177.294 63.9814 176.738 64.1018 176.226 64.3353C175.715 64.5688 175.26 64.91 174.892 65.3355C174.525 65.761 174.254 66.2608 174.097 66.8006C173.941 67.3405 173.903 67.9077 173.987 68.4635L180.279 104.945L183.48 125.598C183.517 125.839 183.626 126.064 183.793 126.242C183.96 126.42 184.177 126.544 184.416 126.597C184.654 126.649 184.903 126.629 185.13 126.538C185.357 126.446 185.55 126.289 185.686 126.086L194.184 113.293L251.903 112.66C252.474 112.672 253.04 112.559 253.563 112.329C254.085 112.099 254.551 111.758 254.928 111.33C255.305 110.901 255.584 110.396 255.746 109.848C255.907 109.301 255.947 108.725 255.863 108.161V108.161Z" fill="#5C87C7"></path><g id="Group_5"><path id="Vector_2" d="M232.103 76.1248H193.335C193.177 76.1252 193.022 76.1599 192.879 76.2264C192.736 76.293 192.609 76.3898 192.508 76.5102C192.406 76.6306 192.332 76.7716 192.291 76.9234C192.249 77.0753 192.242 77.2344 192.268 77.3896L192.449 78.5098C192.491 78.7638 192.621 78.9949 192.815 79.1632C193.01 79.3315 193.258 79.4264 193.515 79.4314H232.266C232.423 79.431 232.579 79.3963 232.721 79.3297C232.864 79.2631 232.991 79.1663 233.092 79.0459C233.194 78.9256 233.268 78.7846 233.309 78.6327C233.351 78.4808 233.359 78.3218 233.332 78.1666L233.152 77.0463C233.11 76.7953 232.983 76.5665 232.792 76.3985C232.601 76.2306 232.357 76.1339 232.103 76.1248V76.1248Z" fill="white"></path><path id="Vector_3" d="M233.387 86.406H194.637C194.479 86.4065 194.323 86.4412 194.181 86.5077C194.038 86.5743 193.911 86.6711 193.81 86.7915C193.708 86.9118 193.634 87.0529 193.593 87.2047C193.551 87.3566 193.543 87.5156 193.57 87.6709L193.751 88.7911C193.793 89.0433 193.924 89.2722 194.119 89.4375C194.314 89.6029 194.561 89.6939 194.817 89.6946H233.567C233.723 89.6937 233.877 89.6594 234.018 89.5939C234.16 89.5284 234.285 89.4333 234.386 89.315C234.487 89.1968 234.562 89.0581 234.605 88.9084C234.648 88.7588 234.658 88.6017 234.634 88.4478L234.453 87.3275C234.415 87.0721 234.286 86.8389 234.09 86.67C233.895 86.501 233.645 86.4074 233.387 86.406V86.406Z" fill="white"></path><path id="Vector_4" d="M224.147 97.5726H206.227C206.07 97.5731 205.914 97.6078 205.771 97.6743C205.629 97.7409 205.502 97.8377 205.401 97.9581C205.299 98.0785 205.225 98.2195 205.183 98.3713C205.142 98.5232 205.134 98.6822 205.16 98.8375L205.341 99.9578C205.383 100.212 205.513 100.443 205.708 100.611C205.903 100.779 206.151 100.874 206.408 100.879H224.346C224.503 100.879 224.659 100.844 224.801 100.778C224.944 100.711 225.071 100.614 225.172 100.494C225.274 100.373 225.348 100.232 225.389 100.081C225.431 99.9287 225.439 99.7697 225.412 99.6144L225.232 98.4942C225.192 98.2357 225.061 98 224.862 97.8307C224.662 97.6613 224.408 97.5697 224.147 97.5726V97.5726Z" fill="white"></path></g></g><g id="Group_6"><path id="Vector_5" d="M527.457 42.2996L536.353 3.19824C536.497 2.82839 536.543 2.42816 536.488 2.03543C536.433 1.64269 536.279 1.27042 536.04 0.953839C535.801 0.637258 535.485 0.386846 535.122 0.226264C534.76 0.0656825 534.362 0.000244993 533.967 0.0361612L470.787 0.740852C469.577 0.824116 468.421 1.27059 467.469 2.02181C466.517 2.77303 465.815 3.79398 465.453 4.95094L457.642 39.2821L452.868 58.7063C452.615 59.7362 453.826 60.0253 454.676 59.158L467.497 47.124L522.032 46.5458C523.261 46.4727 524.439 46.0272 525.408 45.2686C526.377 44.51 527.092 43.4743 527.457 42.2996V42.2996Z" fill="#C9515B"></path><g id="Group_7"><path id="Vector_6" d="M516.174 12.7025H481.492C481.174 12.726 480.87 12.8457 480.621 13.0459C480.373 13.246 480.191 13.5169 480.1 13.8228L479.847 14.8347C479.813 14.9314 479.804 15.0349 479.821 15.1359C479.838 15.2368 479.879 15.332 479.942 15.4128C480.005 15.4936 480.087 15.5574 480.181 15.5984C480.275 15.6395 480.377 15.6564 480.479 15.6478H515.161C515.482 15.6254 515.789 15.5063 516.04 15.3063C516.292 15.1063 516.477 14.8348 516.572 14.5275L516.807 13.5156C516.84 13.4189 516.849 13.3154 516.832 13.2144C516.815 13.1135 516.774 13.0183 516.711 12.9375C516.648 12.8567 516.566 12.7929 516.472 12.7519C516.378 12.7109 516.276 12.6939 516.174 12.7025Z" fill="white"></path><path id="Vector_7" d="M513.66 21.8997H478.979C478.659 21.9245 478.353 22.0444 478.102 22.2441C477.851 22.4437 477.665 22.7139 477.568 23.0199L477.333 24.0318C477.3 24.1285 477.291 24.232 477.308 24.333C477.324 24.4339 477.366 24.5291 477.429 24.6099C477.492 24.6907 477.574 24.7545 477.668 24.7955C477.762 24.8366 477.864 24.8535 477.966 24.8449H512.648C512.969 24.8225 513.275 24.7034 513.527 24.5034C513.779 24.3035 513.964 24.0319 514.058 23.7246L514.293 22.7128C514.327 22.6161 514.335 22.5125 514.319 22.4115C514.302 22.3106 514.26 22.2154 514.197 22.1346C514.135 22.0538 514.053 21.99 513.959 21.949C513.865 21.908 513.762 21.891 513.66 21.8997V21.8997Z" fill="white"></path><path id="Vector_8" d="M501.401 31.8918H485.344C485.023 31.9167 484.718 32.0366 484.467 32.2362C484.215 32.4359 484.03 32.7061 483.933 33.0121L483.698 34.0239C483.665 34.1206 483.656 34.2242 483.673 34.3251C483.689 34.4261 483.731 34.5213 483.794 34.6021C483.857 34.6829 483.939 34.7467 484.033 34.7877C484.126 34.8287 484.229 34.8457 484.331 34.837H500.388C500.708 34.8122 501.013 34.6923 501.265 34.4926C501.516 34.293 501.702 34.0228 501.798 33.7168L502.033 32.7049C502.067 32.6082 502.076 32.5047 502.059 32.4037C502.042 32.3027 502.001 32.2075 501.938 32.1268C501.875 32.046 501.793 31.9822 501.699 31.9412C501.605 31.9001 501.503 31.8832 501.401 31.8918Z" fill="white"></path></g></g><g id="Group_8"><path id="Vector_9" d="M167.64 107.872C167.83 108.031 168.065 108.129 168.313 108.15C168.561 108.171 168.809 108.116 169.024 107.992C169.239 107.868 169.411 107.68 169.516 107.455C169.621 107.23 169.654 106.978 169.611 106.734L161.04 57.333C160.919 56.5429 160.518 55.8223 159.911 55.3019C159.304 54.7815 158.531 54.4956 157.731 54.4962L101.007 55.1105C100.529 55.1105 100.056 55.2135 99.6215 55.4125C99.1868 55.6115 98.8001 55.9018 98.4878 56.2637C98.1754 56.6255 97.9448 57.0503 97.8117 57.5093C97.6785 57.9682 97.6459 58.4504 97.716 58.9231L103.81 94.2118C103.927 95.0004 104.324 95.7207 104.928 96.2414C105.532 96.7622 106.303 97.0487 107.101 97.0487L150.733 96.5066C152.812 96.4805 154.833 97.1983 156.429 98.5303L167.64 107.872Z" fill="#C9515B"></path><g id="Group_9"><path id="Vector_10" d="M149.974 69.4031H111.223C111.066 69.4035 110.91 69.4382 110.768 69.5048C110.625 69.5714 110.498 69.6682 110.397 69.7886C110.295 69.9089 110.221 70.0499 110.18 70.2018C110.138 70.3536 110.13 70.5127 110.157 70.6679L110.337 71.7882C110.38 72.0421 110.509 72.2733 110.704 72.4416C110.899 72.6099 111.147 72.7048 111.404 72.7097H150.154C150.312 72.7093 150.467 72.6746 150.61 72.608C150.753 72.5415 150.88 72.4447 150.981 72.3243C151.083 72.2039 151.157 72.0629 151.198 71.9111C151.24 71.7592 151.247 71.6001 151.221 71.4449L151.04 70.3246C150.998 70.0707 150.868 69.8396 150.674 69.6713C150.479 69.5029 150.231 69.4081 149.974 69.4031V69.4031Z" fill="white"></path><path id="Vector_11" d="M151.275 79.594H112.525C112.368 79.5944 112.212 79.6291 112.07 79.6957C111.927 79.7623 111.8 79.8591 111.699 79.9795C111.597 80.0998 111.523 80.2408 111.482 80.3927C111.44 80.5446 111.432 80.7036 111.459 80.8589L111.639 81.9791C111.682 82.2313 111.812 82.4602 112.008 82.6255C112.203 82.7908 112.45 82.8819 112.706 82.8826H151.456C151.612 82.8818 151.766 82.8474 151.907 82.7819C152.048 82.7164 152.174 82.6213 152.275 82.503C152.376 82.3847 152.451 82.2461 152.494 82.0964C152.536 81.9468 152.546 81.7897 152.523 81.6358L152.342 80.4975C152.3 80.2453 152.169 80.0164 151.974 79.8511C151.779 79.6858 151.531 79.5947 151.275 79.594V79.594Z" fill="white"></path></g></g></g><g id="Group_10"><g id="Group_11"><g id="Group_12"><path id="Vector_12" d="M313.418 300.343H301.339V399H313.418V300.343Z" fill="#5C87C7"></path><path id="Vector_13" d="M313.4 300.343H308.663V399H313.4V300.343Z" fill="#4674B8"></path><path id="Vector_14" d="M342.042 390.923H276.061C274.991 390.923 273.965 391.348 273.209 392.103C272.453 392.859 272.028 393.884 272.028 394.953V394.953C272.026 395.483 272.128 396.009 272.33 396.5C272.531 396.991 272.828 397.437 273.203 397.813C273.578 398.19 274.023 398.488 274.513 398.692C275.004 398.895 275.529 399 276.061 399H342.042C342.574 399 343.101 398.895 343.592 398.692C344.084 398.489 344.53 398.19 344.906 397.814C345.283 397.439 345.581 396.992 345.784 396.501C345.988 396.01 346.093 395.484 346.093 394.953V394.953C346.088 393.882 345.659 392.857 344.9 392.102C344.141 391.347 343.113 390.923 342.042 390.923V390.923Z" fill="#5C87C7"></path><path id="Vector_15" d="M342.042 390.923H276.061C275.369 390.92 274.688 391.094 274.083 391.429C273.478 391.765 272.97 392.25 272.607 392.838H329.747C330.278 392.836 330.804 392.939 331.295 393.14C331.786 393.341 332.233 393.638 332.609 394.012C332.986 394.387 333.284 394.832 333.488 395.322C333.692 395.812 333.797 396.337 333.797 396.868C333.788 397.601 333.581 398.319 333.2 398.946H342.042C343.067 398.877 344.028 398.422 344.73 397.672C345.432 396.922 345.822 395.934 345.822 394.907C345.822 393.881 345.432 392.892 344.73 392.143C344.028 391.393 343.067 390.938 342.042 390.869V390.923Z" fill="#4674B8"></path><path id="Vector_16" d="M313.418 300.343H301.339V309.125H313.418V300.343Z" fill="#4674B8"></path><path id="Vector_17" d="M375.946 162.82C374.187 162.042 372.283 161.642 370.359 161.645H302.406C299.187 161.643 296.068 162.762 293.586 164.81C291.104 166.858 289.414 169.707 288.808 172.866L267.508 284.117C267.182 285.843 267.182 287.614 267.508 289.339C267.505 289.381 267.505 289.423 267.508 289.466H248.648C247.156 289.466 245.726 290.058 244.672 291.112C243.617 292.165 243.024 293.595 243.024 295.085C243.024 296.575 243.617 298.005 244.672 299.059C245.726 300.112 247.156 300.705 248.648 300.705H309.711V300.542H349.076C352.295 300.54 355.412 299.416 357.89 297.365C360.369 295.313 362.054 292.462 362.656 289.303L383.993 178.07C384.579 174.993 384.102 171.809 382.641 169.038C381.179 166.267 378.818 164.075 375.946 162.82V162.82Z" fill="#E6973E"></path><path id="Vector_18" d="M383.993 178.07L362.656 289.321C362.054 292.479 360.368 295.327 357.889 297.376C355.41 299.424 352.293 300.544 349.076 300.542H309.712V300.686H248.648C247.156 300.686 245.726 300.094 244.672 299.041C243.617 297.987 243.024 296.557 243.024 295.067C243.024 293.577 243.617 292.147 244.672 291.093C245.726 290.04 247.156 289.448 248.648 289.448H267.544C267.536 289.406 267.536 289.363 267.544 289.321H336.021C340.448 289.317 344.735 287.772 348.147 284.953C351.559 282.134 353.882 278.216 354.718 273.872L375.965 162.784C378.838 164.046 381.197 166.246 382.656 169.023C384.115 171.8 384.586 174.99 383.993 178.07V178.07Z" fill="#4674B8"></path><path id="Vector_19" d="M354.808 273.258L354.682 273.908C353.846 278.252 351.523 282.17 348.111 284.989C344.699 287.809 340.412 289.353 335.985 289.357H267.508C267.5 289.399 267.5 289.442 267.508 289.484H248.648C247.304 289.482 246.004 289.962 244.985 290.838C243.966 291.714 243.296 292.926 243.097 294.254V279.004C243.097 279.004 243.097 279.004 243.097 278.895C243.017 278.176 243.092 277.448 243.315 276.76C243.539 276.072 243.907 275.439 244.395 274.904C244.882 274.369 245.478 273.944 246.143 273.657C246.808 273.37 247.526 273.228 248.25 273.24L354.808 273.258Z" fill="white"></path><path id="Vector_20" d="M375.946 162.82L354.682 273.908C354.036 278.341 351.766 282.376 348.311 285.231C344.856 288.086 340.463 289.556 335.985 289.357H267.508C267.182 287.632 267.182 285.861 267.508 284.135L288.808 172.884C289.414 169.725 291.104 166.876 293.586 164.828C296.068 162.78 299.187 161.661 302.406 161.663H370.359C372.282 161.654 374.185 162.048 375.946 162.82V162.82Z" fill="#5C87C7"></path></g><g id="Group_13"><path id="Vector_21" d="M214.907 136.149H99.1807C98.547 136.148 97.9205 136.283 97.3437 136.545C96.767 136.808 96.2535 137.191 95.8383 137.669C95.4231 138.148 95.1158 138.71 94.9375 139.317C94.7592 139.925 94.714 140.564 94.8049 141.191L104.714 209.148C104.862 210.197 105.385 211.157 106.186 211.851C106.987 212.545 108.012 212.926 109.072 212.925H224.798C225.43 212.923 226.054 212.786 226.629 212.523C227.203 212.26 227.715 211.876 228.128 211.398C228.541 210.92 228.847 210.359 229.024 209.752C229.201 209.146 229.246 208.508 229.155 207.883L219.264 139.872C219.104 138.833 218.576 137.885 217.777 137.202C216.977 136.519 215.959 136.146 214.907 136.149Z" fill="#275CAB"></path><path id="Vector_22" d="M198.723 136.15H99.2708C98.6371 136.149 98.0105 136.284 97.4338 136.546C96.857 136.808 96.3436 137.192 95.9284 137.67C95.5131 138.148 95.2059 138.71 95.0276 139.318C94.8493 139.926 94.804 140.564 94.8949 141.191L99.2708 171.222C110.502 176.085 122.617 178.576 134.857 178.54C168.001 178.54 187.548 160.923 198.723 136.15Z" fill="#366DBF"></path><g id="Group_14"><path id="Vector_23" d="M162.432 188.026H140.517C140.065 188.025 139.618 188.123 139.208 188.312C138.798 188.501 138.434 188.777 138.142 189.121C137.849 189.465 137.635 189.868 137.514 190.303C137.393 190.738 137.369 191.194 137.443 191.64L144.079 237.156C144.07 237.3 144.07 237.445 144.079 237.589L144.386 239.396C144.491 240.13 144.858 240.802 145.42 241.287C145.981 241.772 146.7 242.037 147.442 242.034H169.05L162.432 188.026Z" fill="#366DBF"></path><path id="Vector_24" d="M194.401 238.764C194.392 237.941 194.058 237.155 193.473 236.577C192.887 235.998 192.097 235.674 191.273 235.674H174.692C173.513 235.676 172.374 235.25 171.486 234.476C170.598 233.701 170.022 232.631 169.864 231.464L165 196.013H167.875C168.327 196.013 168.773 195.916 169.183 195.727C169.593 195.538 169.957 195.262 170.25 194.918C170.543 194.574 170.757 194.17 170.877 193.735C170.998 193.3 171.022 192.844 170.949 192.399L170.66 190.592C170.548 189.856 170.177 189.184 169.613 188.697C169.049 188.21 168.331 187.94 167.586 187.936H161.835C161.218 187.938 160.608 188.072 160.047 188.328C159.485 188.585 158.985 188.958 158.579 189.424C158.173 189.889 157.872 190.435 157.694 191.026C157.517 191.617 157.468 192.239 157.55 192.851L163.608 238.023C163.752 239.111 164.286 240.109 165.11 240.833C165.935 241.558 166.994 241.959 168.092 241.962H191.273C191.69 241.962 192.103 241.879 192.487 241.718C192.872 241.556 193.22 241.319 193.511 241.021C193.803 240.723 194.032 240.37 194.184 239.982C194.337 239.595 194.411 239.181 194.401 238.764V238.764Z" fill="#275CAB"></path></g><g id="Group_15"><path id="Vector_25" d="M182.503 203.114C182.503 203.525 182.381 203.927 182.153 204.268C181.924 204.61 181.6 204.876 181.22 205.034C180.84 205.191 180.422 205.232 180.018 205.152C179.615 205.072 179.244 204.874 178.954 204.583C178.663 204.293 178.465 203.922 178.384 203.519C178.304 203.116 178.345 202.698 178.503 202.319C178.66 201.939 178.927 201.614 179.269 201.386C179.611 201.158 180.013 201.036 180.424 201.036C180.975 201.036 181.504 201.255 181.894 201.644C182.284 202.034 182.503 202.563 182.503 203.114V203.114Z" fill="white"></path><path id="Vector_26" d="M193.154 203.114C193.154 203.525 193.032 203.927 192.803 204.268C192.575 204.61 192.25 204.876 191.87 205.034C191.49 205.191 191.072 205.232 190.669 205.152C190.265 205.072 189.895 204.874 189.604 204.583C189.313 204.293 189.115 203.922 189.035 203.519C188.955 203.116 188.996 202.698 189.153 202.319C189.311 201.939 189.577 201.614 189.919 201.386C190.261 201.158 190.663 201.036 191.074 201.036C191.626 201.036 192.155 201.255 192.545 201.644C192.935 202.034 193.154 202.563 193.154 203.114V203.114Z" fill="white"></path><path id="Vector_27" d="M200.405 205.192C201.553 205.192 202.484 204.261 202.484 203.114C202.484 201.966 201.553 201.036 200.405 201.036C199.256 201.036 198.325 201.966 198.325 203.114C198.325 204.261 199.256 205.192 200.405 205.192Z" fill="white"></path></g><path id="Vector_28" d="M212.664 167.662L218.704 209.221C218.856 210.272 219.383 211.232 220.187 211.925C220.99 212.619 222.018 213 223.08 212.998H224.888C225.52 212.996 226.145 212.859 226.719 212.596C227.294 212.333 227.805 211.949 228.218 211.471C228.632 210.993 228.937 210.431 229.114 209.825C229.292 209.219 229.337 208.581 229.246 207.956L219.264 139.872C219.116 138.823 218.593 137.863 217.792 137.169C216.992 136.475 215.967 136.094 214.907 136.096H213.098C212.465 136.094 211.838 136.23 211.261 136.492C210.685 136.754 210.171 137.137 209.756 137.616C209.341 138.094 209.034 138.656 208.855 139.264C208.677 139.872 208.632 140.51 208.723 141.137L212.592 167.608" fill="#366DBF"></path><path id="Vector_29" d="M168.815 143.486H128.492C128.266 143.489 128.043 143.54 127.838 143.635C127.633 143.731 127.45 143.868 127.302 144.038C127.153 144.209 127.042 144.409 126.976 144.625C126.91 144.841 126.891 145.069 126.919 145.293L127.19 146.973C127.25 147.347 127.442 147.686 127.73 147.932C128.018 148.177 128.385 148.311 128.763 148.31H169.159C169.386 148.31 169.611 148.261 169.819 148.166C170.026 148.072 170.211 147.935 170.361 147.765C170.511 147.594 170.624 147.393 170.691 147.176C170.758 146.958 170.778 146.729 170.75 146.504L170.479 144.841C170.417 144.45 170.213 144.096 169.906 143.846C169.599 143.596 169.211 143.468 168.815 143.486V143.486Z" fill="#6A99DE"></path></g><g id="Group_16"><g id="Group_17"><path id="Vector_30" d="M332.893 164.283C331.609 154.435 317.179 159.043 322.604 149.828C327.613 141.353 321.772 137.595 314.901 136.276C306.113 134.595 311.104 131.144 306.818 122.941C301.394 112.551 293.022 115.713 293.022 115.713C289.568 114.117 285.719 113.575 281.958 114.157C278.197 114.739 274.692 116.418 271.884 118.984C260.6 128.488 263.059 136.89 269.099 148.436C272.155 154.273 268.412 159.476 265.736 170.119C262.535 183.002 278.393 208.895 312.46 191.404C325.551 184.701 333.562 169.505 332.893 164.283Z" fill="#0B3E8A"></path><path id="Vector_31" d="M302.37 147.1V160.091L290.725 173.408V173.264L287.561 166.488V159.26C284.579 158.824 281.802 157.487 279.602 155.43C277.401 153.373 275.882 150.694 275.247 147.75L273.601 138.716C279.505 137.784 284.962 135.007 289.188 130.784C290.581 133.232 292.276 135.496 294.233 137.523C296.403 139.673 299.405 140.216 300.544 141.372C301.242 142.14 301.766 143.049 302.081 144.037C302.396 145.026 302.495 146.07 302.37 147.1Z" fill="#EDBC9C"></path><path id="Vector_32" d="M299.188 135.807C298.855 132.324 298.015 128.909 296.692 125.67C294.305 120.249 290.96 113.979 284.035 113.961C284.035 113.961 300.924 111.341 303.762 134.849L299.188 135.807Z" fill="#C9515B"></path><g id="Group_18"><path id="Vector_33" d="M309.314 139.673C309.035 138.215 308.337 136.87 307.306 135.801C306.275 134.733 304.954 133.987 303.506 133.656C302.058 133.325 300.544 133.423 299.151 133.937C297.757 134.452 296.543 135.361 295.658 136.553C294.773 137.745 294.254 139.169 294.166 140.651C294.077 142.133 294.422 143.609 295.159 144.898C295.896 146.187 296.992 147.234 298.314 147.91C299.637 148.587 301.128 148.864 302.605 148.708C303.64 148.556 304.634 148.201 305.531 147.664C306.428 147.127 307.21 146.419 307.833 145.58C308.456 144.741 308.908 143.788 309.162 142.774C309.416 141.761 309.467 140.707 309.314 139.673V139.673Z" fill="#C9515B"></path><path id="Vector_34" d="M304.034 147.877C302.011 148.011 300.018 147.339 298.489 146.008C296.961 144.678 296.022 142.796 295.879 140.776C295.622 138.922 296.046 137.037 297.074 135.472C298.101 133.907 299.662 132.768 301.466 132.265H300.833C298.782 132.646 296.952 133.788 295.708 135.462C294.465 137.136 293.902 139.218 294.13 141.289C294.359 143.361 295.364 145.27 296.942 146.633C298.521 147.995 300.557 148.711 302.641 148.636C303.897 148.495 305.094 148.028 306.113 147.281C305.455 147.586 304.754 147.787 304.034 147.877V147.877Z" fill="#983F46"></path><path id="Vector_35" d="M306.384 139.872C306.25 139.165 305.913 138.512 305.414 137.994C304.915 137.475 304.275 137.113 303.574 136.951C302.872 136.79 302.138 136.836 301.462 137.085C300.786 137.333 300.198 137.773 299.768 138.35C299.338 138.928 299.086 139.618 299.042 140.336C298.998 141.054 299.165 141.77 299.522 142.395C299.878 143.02 300.409 143.528 301.05 143.857C301.691 144.185 302.413 144.32 303.13 144.245C303.631 144.172 304.113 144.001 304.548 143.742C304.983 143.482 305.362 143.14 305.665 142.733C305.967 142.327 306.186 141.865 306.31 141.374C306.433 140.883 306.459 140.373 306.384 139.872V139.872Z" fill="#983F46"></path></g><path id="Vector_36" d="M298.501 153.641C296.866 155.774 295.051 157.763 293.076 159.586C292.643 159.955 292.297 160.415 292.062 160.934C291.828 161.452 291.711 162.016 291.72 162.585L290.689 173.21L287.525 166.434V159.206C287.525 159.206 294.902 157.941 298.501 153.641Z" fill="#DD9F80"></path><g id="Group_19"><path id="Vector_37" d="M293.582 153.081L293.456 152.34C297.705 151.617 300.797 145.907 300.833 145.853L301.502 146.214C301.321 146.449 298.139 152.304 293.582 153.081Z" fill="#C9515B"></path><path id="Vector_38" d="M294.324 152.665C294.233 151.96 293.184 151.581 291.973 151.816C290.761 152.051 289.893 152.774 289.984 153.478C290.074 154.183 291.141 154.562 292.335 154.327C293.528 154.093 294.432 153.352 294.324 152.665Z" fill="#C9515B"></path></g></g><path id="Vector_39" d="M272.968 218.147C282.425 204.83 290.852 190.881 290.852 190.881L285.897 166.976C281.869 167.767 278.196 169.817 275.41 172.83C271.793 176.444 254.47 210.974 254.47 210.974L238.413 161.844L226.66 162.748C226.66 162.748 239.896 241.763 250.167 241.908C254.814 241.908 264.289 230.326 272.932 218.165" fill="#81C4EF"></path><path id="Vector_40" d="M319.096 187.683L329.385 226.17L268.538 231.139L268.81 242.125C268.81 242.125 338.968 242.432 352.187 242.306C360.974 242.215 344.411 172.577 333.833 164.609C325.479 158.303 302.37 159.983 302.37 159.983L285.897 166.976C285.897 166.976 266.784 185.894 278.194 203.674C287.235 217.696 275.735 244.926 275.735 244.926L314.63 247.238L349.366 247.564L319.096 187.683Z" fill="#81C4EF"></path><path id="Vector_41" d="M280.256 230.217L282.444 229.82C284.523 220.785 284.903 208.282 280.147 202.301C270.726 190.465 280.418 173.264 285.879 167.03C285.011 167.915 267.092 186.328 278.212 203.692C283.51 211.95 282.208 222.755 280.256 230.217Z" fill="#60B1E6"></path><path id="Vector_42" d="M268.701 233.687C262.264 233.922 255.393 236.216 252.156 239.993C251.999 240.185 251.9 240.418 251.87 240.665C251.84 240.911 251.881 241.161 251.986 241.386C252.092 241.61 252.259 241.8 252.468 241.934C252.677 242.068 252.92 242.141 253.168 242.143H268.81L268.701 233.687Z" fill="#EDBC9C"></path><path id="Vector_43" d="M237.527 162.115C237.527 162.115 239.191 148.527 237.69 148.039C236.189 147.552 234.707 153.334 234.707 153.334C234.707 153.334 228.414 141.065 224.092 142.492C219.771 143.92 227.709 162.675 227.709 162.675L237.527 162.115Z" fill="#EDBC9C"></path><path id="Vector_44" d="M280.238 230.109L328.155 226.116C328.543 226.082 328.919 225.968 329.26 225.78C329.601 225.592 329.898 225.335 330.133 225.025C330.368 224.715 330.536 224.359 330.625 223.981C330.714 223.602 330.723 223.209 330.651 222.827C328.842 213.793 323.761 188.207 323.418 188.966C323.074 189.725 328.246 219.177 322.116 222.14C317.975 224.182 280.238 230.109 280.238 230.109Z" fill="#60B1E6"></path><g id="Group_20"><g id="Group_21"><path id="Vector_45" d="M312.822 371.77C312.454 371.856 312.132 372.074 311.918 372.384C308.862 376.631 306.167 377.624 300.815 378.347C300.461 378.394 300.118 378.504 299.802 378.672C300.446 377.798 300.87 376.782 301.04 375.71C301.21 374.638 301.12 373.541 300.779 372.511C299.925 370.713 298.902 369.001 297.723 367.397L305.534 362.754C305.534 362.754 310.326 368.283 312.822 371.77Z" fill="#EDBC9C"></path><path id="Vector_46" d="M318.608 381.69C317.234 383.027 294.92 395.205 289.676 398.259C289.044 398.639 287.724 399.307 287.488 398.602C287.109 397.5 296.747 378.907 300.869 378.347C306.204 377.624 308.916 376.54 311.972 372.384C312.114 372.176 312.306 372.005 312.53 371.887C312.753 371.769 313.003 371.707 313.256 371.707C313.509 371.707 313.758 371.769 313.981 371.887C314.205 372.005 314.397 372.176 314.539 372.384C316.619 375.655 319.729 380.642 318.608 381.69Z" fill="#0B3E8A"></path></g><path id="Vector_47" d="M276.042 244.835C276.042 244.835 221.923 269.915 220.476 287.297C219.21 302.764 298.971 373.505 298.971 373.505L311.628 368.319L267.978 297.994C267.978 297.994 314.232 275.227 325.533 247.798L276.042 244.835Z" fill="#164FA6"></path><path id="Vector_48" d="M241.542 282.744C237.925 289.791 235.177 299.657 233.296 308.601C239.426 315.828 247.147 324.05 255.139 332.09C249.245 308.799 244.001 285.436 245.809 282.093C249.263 275.715 272.191 258.748 288.411 250.31C288.411 250.31 250.058 266.355 241.542 282.744Z" fill="#0B3E8A"></path></g><g id="Group_22"><g id="Group_23"><path id="Vector_49" d="M280.925 386.279C280.556 386.181 280.164 386.219 279.822 386.388C275.084 388.592 272.245 388.195 267.164 386.153C266.832 386.037 266.485 385.97 266.133 385.954C267.119 385.503 267.982 384.823 268.652 383.971C269.322 383.12 269.779 382.121 269.985 381.057C270.124 379.069 270.07 377.072 269.822 375.095L278.863 374.86C278.863 374.86 280.473 381.997 280.925 386.279Z" fill="#EDBC9C"></path><path id="Vector_50" d="M281.142 398.44C279.333 398.91 252.951 398.621 246.785 398.711C246.61 398.711 246.437 398.673 246.278 398.599C246.12 398.525 245.979 398.416 245.867 398.282C245.755 398.147 245.673 397.99 245.629 397.82C245.585 397.651 245.578 397.474 245.61 397.302C245.809 396.163 263.331 384.653 267.182 386.171C272.209 388.141 275.048 388.592 279.84 386.37C280.068 386.26 280.319 386.208 280.572 386.218C280.825 386.227 281.071 386.298 281.291 386.425C281.51 386.551 281.695 386.729 281.829 386.943C281.964 387.157 282.045 387.401 282.064 387.653C282.353 391.519 282.624 398.042 281.142 398.44Z" fill="#0B3E8A"></path></g><g id="Group_24"><path id="Vector_51" d="M349.185 247.419C349.185 247.419 353.705 278.136 326.239 285.816C311.482 289.805 296.494 292.882 281.359 295.031L283.022 381.961H268.556C268.556 381.961 242.03 289.014 245.791 282.093C250.04 274.233 283.764 250.364 298.229 246.046L349.185 247.419Z" fill="#164FA6"></path><path id="Vector_52" d="M281.359 295.031C296.494 292.882 311.482 289.805 326.239 285.816C353.705 278.046 349.185 247.419 349.185 247.419L332.17 246.967C327.052 257.953 310.471 285.129 270.148 288.074L279.189 382.033H282.95L281.359 295.031Z" fill="#0B3E8A"></path></g></g></g><g id="Group_25"><g id="Group_26"><path id="Vector_53" d="M102.562 398.982L96.5226 398.946L121.657 247.907L127.751 247.853L102.562 398.982Z" fill="#5C87C7"></path><path id="Vector_54" d="M351.68 398.928L358.117 398.982L326.926 246.172L320.543 246.226L351.68 398.928Z" fill="#5C87C7"></path></g><g id="Group_27"><path id="Vector_55" d="M126.087 256.237L127.751 247.853L121.657 247.907L120.011 256.237H126.087Z" fill="#4674B8"></path><path id="Vector_56" d="M328.969 256.237L326.926 246.172L320.543 246.226L322.586 256.237H328.969Z" fill="#4674B8"></path></g><path id="Vector_57" d="M363.614 242.053H90.8991C90.0838 242.053 89.3019 242.376 88.7255 242.952C88.149 243.528 87.8251 244.31 87.8251 245.124C87.8251 245.939 88.149 246.72 88.7255 247.296C89.3019 247.872 90.0838 248.196 90.8991 248.196H363.614C364.43 248.196 365.212 247.872 365.788 247.296C366.365 246.72 366.688 245.939 366.688 245.124C366.688 244.31 366.365 243.528 365.788 242.952C365.212 242.376 364.43 242.053 363.614 242.053V242.053Z" fill="#5C87C7"></path></g></g><g id="Group_28"><g id="Group_29"><g id="Group_30"><path id="Vector_58" d="M466.755 190.357L466.556 198.127L461.873 378.636H443.212L426.685 223.965L405.692 276.149L420.031 378.618H413.123L401.732 378.727C401.732 378.727 367.593 276.456 368.28 269.825C368.967 263.193 394.607 190.953 394.607 190.953L466.755 190.357Z" fill="#164FA6"></path><path id="Vector_59" d="M468.563 78.6183L433.502 73.8119L432.688 73.6854L415.908 73.7577L415.763 73.7938L395.746 78.799V191.333H468.563V78.6183Z" fill="#C9515B"></path><path id="Vector_60" d="M528.65 100.482C528.65 100.482 531.2 84.5811 533.062 84.5088C534.925 84.4365 534.708 91.4654 534.708 91.4654C534.708 91.4654 545.829 79.6482 550.277 82.5573C554.725 85.4664 539.608 104.24 539.608 104.24L528.65 100.482Z" fill="#EDBC9C"></path><path id="Vector_61" d="M415.944 73.8478L417.843 198.127H391.624L389.815 164.103L355.062 163.542C354.221 163.573 353.384 163.404 352.622 163.049C351.859 162.693 351.192 162.162 350.674 161.499C350.157 160.836 349.805 160.059 349.646 159.233C349.488 158.407 349.528 157.556 349.763 156.748L367.014 96.5064C368.007 93.053 369.891 89.9213 372.478 87.4253C375.064 84.9294 378.262 83.1571 381.751 82.2861L415.763 73.7755L415.944 73.8478Z" fill="#81C4EF"></path><path id="Vector_62" d="M540.657 104.71L506.952 173.95C506.468 174.835 505.758 175.577 504.895 176.1C504.032 176.623 503.046 176.909 502.037 176.93C501.028 176.95 500.031 176.703 499.148 176.215C498.264 175.727 497.526 175.014 497.007 174.149L470.607 130.422L469.287 198.127H441.241L433.394 73.83H433.502L469.124 78.7267C472.436 79.2283 475.577 80.5264 478.277 82.5093C480.976 84.4922 483.153 87.1006 484.62 90.1102L502.703 127.26C502.81 127.467 502.967 127.644 503.16 127.777C503.352 127.909 503.574 127.992 503.806 128.019C504.038 128.046 504.273 128.015 504.49 127.93C504.708 127.845 504.901 127.708 505.053 127.531L527.909 100.12L540.657 104.71Z" fill="#81C4EF"></path><path id="Vector_63" d="M389.617 164.446H423.792L424.117 146.955L389.942 146.449L389.617 164.446Z" fill="#81C4EF"></path><path id="Vector_64" d="M424.009 159.604C433.647 159.26 443.899 155.809 448.781 150.135C449.019 149.854 449.172 149.51 449.221 149.144C449.269 148.778 449.212 148.406 449.056 148.072C448.901 147.738 448.652 147.455 448.341 147.257C448.029 147.059 447.668 146.955 447.299 146.955H423.774L424.009 159.604Z" fill="#EDBC9C"></path><path id="Vector_65" d="M410.664 165.151L410.7 164.591L389.797 164.446L391.624 198.127L397.862 170.21L410.664 165.151Z" fill="#60B1E6"></path><path id="Vector_66" d="M466.556 198.127L461.873 378.636H460.571L448.04 198.127H466.556Z" fill="#0B3E8A"></path><path id="Vector_67" d="M424.081 146.829C424.081 146.829 377.7 150.172 378.008 149.304L386.054 121.586L386.181 122.002L386.958 141.336C387.067 143.956 421.658 146.142 424.081 146.829Z" fill="#60B1E6"></path><path id="Vector_68" d="M506.952 173.95L540.693 104.71H540.53C536.914 104.71 505.559 170.264 502.268 171.927C498.507 173.734 470.607 130.476 470.607 130.476L497.007 174.203C497.53 175.066 498.273 175.775 499.159 176.258C500.045 176.742 501.043 176.983 502.053 176.957C503.062 176.932 504.046 176.64 504.907 176.112C505.767 175.584 506.473 174.838 506.952 173.95V173.95Z" fill="#60B1E6"></path><path id="Vector_69" d="M403.883 378.6C399.851 386.84 380.72 390.995 380.72 390.995C380.346 391.887 380.224 392.864 380.367 393.82C380.511 394.776 380.914 395.674 381.534 396.416C383.722 399.488 403.847 397.609 406.361 397.049C408.005 396.612 409.488 395.708 410.628 394.447C411.411 395.311 412.298 396.075 413.268 396.723C414.208 397.193 419.344 396.163 419.344 396.163C420.555 392.875 419.344 380.371 419 378.383L403.883 378.6Z" fill="#0B3E8A"></path><path id="Vector_70" d="M460.137 378.6C464.151 386.84 483.282 390.995 483.282 390.995C483.657 391.886 483.781 392.861 483.641 393.817C483.5 394.772 483.101 395.671 482.487 396.416C480.299 399.488 460.173 397.609 457.642 397.049C455.997 396.612 454.515 395.708 453.374 394.447C452.595 395.315 451.708 396.08 450.734 396.723C449.794 397.193 444.659 396.163 444.659 396.163C443.447 392.875 444.659 380.371 445.002 378.383L460.137 378.6Z" fill="#0B3E8A"></path><path id="Vector_71" d="M405.692 276.149L420.031 378.618H413.123C408.874 356.556 393.992 282.762 394.553 278.136C395.186 272.625 425.763 225.501 426.703 223.929L405.692 276.149Z" fill="#0B3E8A"></path></g><path id="Vector_72" fill-rule="evenodd" clip-rule="evenodd" d="M433.43 73.9204C430.898 75.9441 424.75 80.2626 424.75 80.2626C424.75 80.2626 418.494 75.9802 415.908 73.9384V59.1038H433.448L433.43 73.9204Z" fill="#EDBC9C"></path><g id="Group_31"><g id="Group_32"><path id="Vector_73" fill-rule="evenodd" clip-rule="evenodd" d="M433.43 59.1038V65.3014C430.961 67.3291 427.865 68.4377 424.669 68.4377C421.473 68.4377 418.377 67.3291 415.908 65.3014V59.1038H433.43Z" fill="#EDBC9C"></path><path id="Vector_74" fill-rule="evenodd" clip-rule="evenodd" d="M405.203 49.5272H444.604L445.219 38.5773C453.917 34.9635 447.389 14.13 447.389 14.13C447.895 19.1532 434.316 19.3158 428.963 18.4846C425.884 17.9423 422.712 18.4114 419.922 19.8217C419.922 19.8217 402.835 16.2079 403.829 40.0771C403.942 43.2677 404.403 46.4364 405.203 49.5272V49.5272Z" fill="#0B3E8A"></path><g id="Group_33"><path id="Vector_75" fill-rule="evenodd" clip-rule="evenodd" d="M440.446 38.5412V48.4069C440.444 50.4986 440.015 52.568 439.185 54.4882C438.355 56.4084 437.141 58.1388 435.618 59.5735L434.099 60.9829C431.538 63.3958 428.152 64.7398 424.633 64.7398C421.113 64.7398 417.727 63.3958 415.167 60.9829L413.648 59.5735C412.123 58.1477 410.908 56.4239 410.077 54.5093C409.247 52.5946 408.819 50.5298 408.82 48.443V40.9082C412.873 37.8758 416.519 34.3354 419.669 30.374C419.669 30.374 426.613 37.0234 440.446 38.5412Z" fill="#EDBC9C"></path><path id="Vector_76" fill-rule="evenodd" clip-rule="evenodd" d="M433.43 61.5611V65.3014C430.961 67.3291 427.865 68.4376 424.669 68.4376C421.473 68.4376 418.377 67.3291 415.908 65.3014V61.543C418.373 63.5765 421.469 64.6903 424.666 64.6936C427.862 64.6969 430.96 63.5895 433.43 61.5611Z" fill="#DD9F80"></path><path id="Vector_77" fill-rule="evenodd" clip-rule="evenodd" d="M412.744 50.6655C413.447 49.7014 413.782 48.518 413.689 47.3287C413.596 46.1394 413.082 45.0223 412.237 44.1787C411.393 43.3352 410.275 42.8207 409.085 42.7279C407.895 42.6352 406.711 42.9702 405.746 43.6728C405.354 43.9106 405.025 44.239 404.788 44.6304C404.073 45.5954 403.73 46.7847 403.82 47.9815C403.909 49.1784 404.427 50.3031 405.277 51.1507C406.127 51.9983 407.254 52.5124 408.452 52.5991C409.65 52.6858 410.84 52.3394 411.803 51.6232C412.19 51.3848 412.513 51.0561 412.744 50.6655V50.6655Z" fill="#EDBC9C"></path><path id="Vector_78" fill-rule="evenodd" clip-rule="evenodd" d="M444.225 50.6836C444.91 49.7484 445.25 48.6043 445.185 47.4468C445.121 46.2892 444.656 45.19 443.87 44.3368C443.085 43.4836 442.027 42.9293 440.878 42.7687C439.729 42.608 438.56 42.851 437.571 43.456C436.936 43.8007 436.415 44.3216 436.07 44.9557C435.439 45.9432 435.176 47.1213 435.327 48.2832C435.478 49.4451 436.034 50.5167 436.897 51.31C437.76 52.1033 438.875 52.5677 440.046 52.6217C441.217 52.6756 442.37 52.3157 443.303 51.6051C443.678 51.3747 443.994 51.0589 444.225 50.6836V50.6836Z" fill="#EDBC9C"></path></g></g><g id="Group_34"><path id="Vector_79" d="M444.08 40.2397H442.579V35.072C442.579 26.4711 434.732 19.4603 425.058 19.4603H424.316C414.66 19.4603 406.813 26.4711 406.813 35.072V40.2578H405.312V35.072C405.312 25.6761 413.847 18.0329 424.316 18.0329H425.058C435.545 18.0329 444.08 25.6761 444.08 35.072V40.2397Z" fill="#983F46"></path><g id="Group_35"><g id="Group_36"><g id="Group_37"><path id="Vector_80" d="M442.832 37.4752C441.71 37.4752 440.634 37.9206 439.84 38.7135C439.047 39.5065 438.601 40.5819 438.601 41.7033V49.22C438.601 50.3414 439.047 51.4168 439.84 52.2098C440.634 53.0027 441.71 53.4482 442.832 53.4482C443.955 53.4482 445.031 53.0027 445.824 52.2098C446.618 51.4168 447.064 50.3414 447.064 49.22V41.7033C447.064 40.5819 446.618 39.5065 445.824 38.7135C445.031 37.9206 443.955 37.4752 442.832 37.4752Z" fill="#C9515B"></path><path id="Vector_81" d="M442.832 37.4752C442.402 37.4809 441.975 37.5541 441.567 37.692C442.421 37.9626 443.168 38.4963 443.701 39.2168C444.233 39.9372 444.524 40.8076 444.532 41.7033V49.22C444.524 50.1157 444.233 50.9861 443.701 51.7065C443.168 52.427 442.421 52.9607 441.567 53.2313C441.975 53.3692 442.402 53.4424 442.832 53.4482C443.955 53.4482 445.031 53.0027 445.824 52.2098C446.618 51.4168 447.064 50.3414 447.064 49.22V41.7033C447.064 40.5819 446.618 39.5065 445.824 38.7135C445.031 37.9206 443.955 37.4752 442.832 37.4752Z" fill="#983F46"></path></g><g id="Group_38"><path id="Vector_82" d="M406.56 37.4752C405.437 37.4752 404.361 37.9206 403.568 38.7135C402.774 39.5065 402.328 40.5819 402.328 41.7033V49.22C402.328 50.3414 402.774 51.4168 403.568 52.2098C404.361 53.0027 405.437 53.4482 406.56 53.4482C407.679 53.4434 408.75 52.9958 409.54 52.2034C410.329 51.411 410.773 50.3383 410.773 49.22V41.7033C410.773 40.5851 410.329 39.5123 409.54 38.7199C408.75 37.9275 407.679 37.4799 406.56 37.4752V37.4752Z" fill="#C9515B"></path><path id="Vector_83" d="M406.56 37.4752C406.129 37.4809 405.702 37.5541 405.294 37.692C406.146 37.9633 406.891 38.4977 407.421 39.2185C407.95 39.9392 408.238 40.8091 408.241 41.7033V49.22C408.238 50.1142 407.95 50.9841 407.421 51.7049C406.891 52.4256 406.146 52.96 405.294 53.2313C405.702 53.3692 406.129 53.4424 406.56 53.4482C407.679 53.4434 408.75 52.9958 409.54 52.2034C410.329 51.411 410.773 50.3383 410.773 49.22V41.7033C410.773 40.5851 410.329 39.5123 409.54 38.7199C408.75 37.9275 407.679 37.4799 406.56 37.4752V37.4752Z" fill="#983F46"></path></g></g><g id="Group_39"><path id="Vector_84" d="M431.423 58.1642V57.333C436.232 57.0258 440.373 51.0269 440.464 50.9727L441.169 51.4425C440.88 51.7135 436.648 57.8389 431.423 58.1642Z" fill="#C9515B"></path><path id="Vector_85" d="M432.345 57.7847C432.345 57.0078 431.188 56.4476 429.831 56.556C428.475 56.6645 427.39 57.3872 427.408 58.1822C427.426 58.9773 428.566 59.5194 429.94 59.4109C431.314 59.3025 432.381 58.5617 432.345 57.7847Z" fill="#C9515B"></path></g></g></g></g></g><g id="Group_40"><path id="Vector_86" d="M452.362 95.6031H391.226C390.421 95.6233 389.629 95.8058 388.897 96.1397C388.165 96.4736 387.508 96.9521 386.966 97.5462C386.424 98.1404 386.008 98.838 385.742 99.5971C385.477 100.356 385.368 101.161 385.422 101.963L387.031 141.336C387.1 142.872 387.755 144.323 388.861 145.392C389.968 146.46 391.441 147.065 392.98 147.082H450.68C452.219 147.065 453.692 146.46 454.799 145.392C455.905 144.323 456.56 142.872 456.629 141.336L458.13 101.927C458.184 101.13 458.076 100.33 457.812 99.5748C457.548 98.8201 457.135 98.1264 456.596 97.5356C456.057 96.9448 455.404 96.4691 454.676 96.137C453.949 95.8049 453.161 95.6233 452.362 95.6031V95.6031Z" fill="#275CAB"></path><path id="Vector_87" d="M452.362 95.6031H391.226C390.429 95.6008 389.641 95.7689 388.914 96.0961C388.187 96.4233 387.539 96.9022 387.013 97.5004C387.522 97.3392 388.052 97.2539 388.586 97.2474H449.794C450.599 97.2673 451.392 97.4504 452.125 97.7856C452.857 98.1209 453.514 98.6013 454.055 99.1977C454.596 99.7941 455.01 100.494 455.272 101.255C455.535 102.016 455.639 102.823 455.58 103.626L453.989 142.998C453.914 144.425 453.33 145.777 452.344 146.811C453.526 146.452 454.57 145.74 455.336 144.771C456.102 143.802 456.553 142.622 456.629 141.39L458.13 101.927C458.184 101.13 458.076 100.33 457.812 99.5748C457.548 98.8201 457.135 98.1264 456.596 97.5356C456.057 96.9448 455.404 96.4691 454.676 96.1369C453.949 95.8048 453.161 95.6233 452.362 95.6031V95.6031Z" fill="#366DBF"></path><path id="Vector_88" d="M428.24 122.363C428.244 120.99 427.839 119.646 427.077 118.502C426.316 117.358 425.232 116.466 423.962 115.938C422.693 115.411 421.295 115.272 419.946 115.539C418.598 115.806 417.359 116.468 416.387 117.439C415.415 118.41 414.753 119.648 414.486 120.996C414.218 122.344 414.357 123.74 414.885 125.009C415.413 126.277 416.306 127.361 417.45 128.122C418.595 128.883 419.94 129.287 421.315 129.284C423.151 129.284 424.913 128.555 426.212 127.257C427.51 125.959 428.24 124.199 428.24 122.363Z" fill="white"></path></g></g></g></g><g id="Group_41"><g id="Group_42"><g id="Group_43"><path id="Vector_89" d="M50.8109 357.893C50.8109 357.893 46.7605 354.117 49.4728 339.824C52.1851 325.531 59.0745 311.781 55.6931 296.26C52.3117 280.738 25.8394 241.583 25.749 238.981C25.6586 236.379 17.594 284.515 31.2822 303.487C44.9704 322.46 46.6158 329.019 46.001 338.993C45.3863 348.967 46.1457 357.062 47.6465 359.32L50.8109 357.893Z" fill="#5C87C7"></path><path id="Vector_90" d="M48.2975 329.109C46.7063 335.487 45.7479 351.497 48.2975 355.327C48.5326 355.689 48.8761 355.49 49.292 354.821C48.5145 352.183 48.0082 347.594 49.4728 339.806C52.1852 325.495 59.0745 311.763 55.6931 296.242C52.3117 280.72 25.8394 241.565 25.749 238.963C25.749 238.963 29.7452 271.577 43.1802 294.019C52.8 310.1 49.8887 322.731 48.2975 329.109Z" fill="#6A99DE"></path></g><g id="Group_44"><path id="Vector_91" d="M55.6389 356.899C55.6389 356.899 47.8635 337.493 61.0635 320.761C74.2635 304.029 95.3292 282.401 95.7451 273.782C95.7451 273.782 101.17 314.347 84.0098 325.839C66.8498 337.33 54.8252 339.155 57.8087 356.827L55.6389 356.899Z" fill="#5C87C7"></path><path id="Vector_92" d="M74.155 317.689C55.024 331.603 53.4509 347.63 56.4164 355.056C56.5269 355.324 56.6964 355.565 56.9124 355.758C57.1284 355.952 57.3853 356.095 57.664 356.176C55.0964 339.119 67.0306 337.186 83.9736 325.839C100.917 314.491 95.7089 273.782 95.7089 273.782C95.7089 273.782 93.2859 303.776 74.155 317.689Z" fill="#6A99DE"></path></g><g id="Group_45"><path id="Vector_93" d="M42.8367 357.333C44.3545 350.32 44.7512 343.112 44.012 335.975C42.6739 324.881 31.0832 318.629 20.252 306.92C14.6827 300.903 13.0192 268.975 16.4909 266.066C16.4909 266.066 -2.64001 289.213 0.307388 306.179C3.25478 323.146 34.4646 334.168 37.3578 342.318C39.078 347.157 39.9704 352.251 39.9978 357.387L42.8367 357.333Z" fill="#5C87C7"></path><g id="Group_46"><path id="Vector_94" d="M10.0175 275.173C3.70684 292.284 10.1803 312.991 31.1737 325.875C46.6339 335.343 41.7156 355.038 41.7156 355.038L44.2471 347.268C44.5151 343.505 44.4364 339.725 44.012 335.975C42.6739 324.881 31.0833 318.629 20.252 306.92C14.8274 301.102 13.1458 271.252 16.1474 266.482C13.9524 269.269 11.9063 272.17 10.0175 275.173V275.173Z" fill="#6A99DE"></path><path id="Vector_95" d="M16.1474 266.482L16.4909 266.066C16.354 266.185 16.238 266.325 16.1474 266.482V266.482Z" fill="#74B1D3"></path></g></g><g id="Group_47"><path id="Vector_96" d="M59.635 356.05C59.635 356.05 64.1194 339.426 75.2038 337.186C86.2881 334.945 99.018 318.575 99.7051 315.377C99.7051 315.377 97.8426 346.257 59.635 356.05Z" fill="#5C87C7"></path><path id="Vector_97" d="M74.5709 342.679C67.772 346.076 64.9512 350.647 63.9566 354.785C97.9692 343.853 99.7051 315.377 99.7051 315.377C99.308 316.539 98.7281 317.631 97.9872 318.611C94.6782 324.465 86.5774 336.698 74.5709 342.679Z" fill="#6A99DE"></path></g></g><path id="Vector_98" d="M83.63 349.925H25.6405L32.5298 393.29C32.7834 394.877 33.5943 396.321 34.8171 397.364C36.0398 398.407 37.5944 398.981 39.2021 398.982H70.0684C71.6751 398.977 73.2278 398.402 74.4498 397.36C75.6718 396.317 76.4836 394.875 76.7407 393.29L83.63 349.925Z" fill="#AFDDFD"></path><path id="Vector_99" opacity="0.56" d="M69.5802 349.925H25.6405L26.7797 357.152H68.3687L62.6185 393.29C62.3649 394.877 61.554 396.321 60.3313 397.364C59.1085 398.407 57.5539 398.981 55.9462 398.982H69.9961C71.6028 398.977 73.1555 398.402 74.3774 397.36C75.5994 396.317 76.4113 394.875 76.6684 393.29L83.5577 349.925H69.5802Z" fill="#5C87C7"></path></g></g></g><defs><clipPath id="clip0"><rect width="551" height="399" fill="white"></rect></clipPath></defs></svg> 