<?xml version="1.0" encoding="UTF-8"?> <svg xmlns="http://www.w3.org/2000/svg" width="551" height="341" viewBox="0 0 551 341" fill="none"><style> svg { display:flex; height:100vh; margin:0 auto; } #image { animation: image 5s infinite linear; transform-origin: center; transform-box: fill-box; } @keyframes image { 0 { transform: translateX(0%); } 25% { transform: translateX(-15%); } 50% { transform: translateX(-30%); } 75% { transform: translateX(-15%); } 100% { transform: translateX(0%); } } #Vector_54 { animation: Vector_54 5s infinite linear; transform-origin: center; transform-box: fill-box; } @keyframes Vector_54 { 0 { transform: scale(1); } 50% { transform: scale(1.2); } 100% { transform: scale(1); } } #Group_34 { animation: Group_34 5s infinite linear; transform-origin: center; transform-box: fill-box; } @keyframes Group_34 { 0 { opacity:0; } 20% { opacity:0; } 40% { opacity:0; } 60% { opacity:1; } 80% { opacity:1; } 100% { opacity:1; } } #Vector_140 { animation: Vector_140 5s infinite linear; transform-origin: center; transform-box: fill-box; } @keyframes Vector_140 { 0 { opacity:0; } 20% { opacity:1; } 40% { opacity:1; } 60% { opacity:1; } 80% { opacity:1; } 100% { opacity:1; } } #Vector_141 { animation: Vector_141 5s infinite linear; transform-origin: center; transform-box: fill-box; } @keyframes Vector_141 { 0 { opacity:0; } 20% { opacity:0; } 40% { opacity:1; } 60% { opacity:1; } 80% { opacity:1; } 100% { opacity:1; } } #Group_4 { animation: Group_4 5s infinite linear; transform-origin: center; transform-box: fill-box; } @keyframes Group_4 { 0 { transform: rotateZ(0deg); } 25% { transform: rotateZ(3deg); } 50% { transform: rotateZ(6deg); } 75% { transform: rotateZ(3deg); } 100% { transform: rotateZ(0deg); } } #Group_20 { animation: Group_20 7s infinite linear; transform-origin: center; transform-box: fill-box; } @keyframes Group_20 { 0 { transform: translateY(0); } 25% { transform: translateY(-10px); } 50% { transform: translateY(-20px); } 75% { transform: translateY(-10px); } 100% { transform: translateY(0); } } #Group_18 { animation: Group_18 7s infinite linear; animation-delay: 3s; transform-origin: center; transform-box: fill-box; } @keyframes Group_18 { 0 { transform: translateY(0); } 25% { transform: translateY(-5px); } 50% { transform: translateY(-10px); } 75% { transform: translateY(-5px); } 100% { transform: translateY(0); } } #Group_27 { animation: Group_27 5s infinite linear; transform-origin: center; transform-box: fill-box; } @keyframes Group_27 { 0 { transform: rotateZ(0deg); } 25% { transform: rotateZ(5deg); } 50% { transform: rotateZ(0deg); } 75% { transform: rotateZ(-5deg); } 100% { transform: rotateZ(0deg); } } #Vector_105 { animation: Vector_105 3s infinite linear; transform-origin: center; transform-box: fill-box; } @keyframes Vector_105 { 0 { transform: rotateZ(0deg); } 25% { transform: rotateZ(7deg); } 50% { transform: rotateZ(0deg); } 75% { transform: rotateZ(-7deg); } 100% { transform: rotateZ(0deg); } } #Vector_106 { animation: Vector_106 3s infinite linear; transform-origin: center; transform-box: fill-box; } @keyframes Vector_106 { 0 { transform: rotateZ(0deg); } 25% { transform: rotateZ(-7deg); } 50% { transform: rotateZ(0deg); } 75% { transform: rotateZ(7deg); } 100% { transform: rotateZ(0deg); } } #slide { animation: slide 5s infinite linear; transform-origin: center; transform-box: fill-box; } @keyframes slide { 0 { transform: translateY(0); } 25% { transform: translateY(30%) } 50% { transform: translateY(60%) } 75% { transform: translateY(30%) } 100% { transform: translateY(0) } } #Group_6 { animation: Group_6 10s infinite linear; transform-origin: center; transform-box: fill-box; } @keyframes Group_6 { 0 { transform: translateY(0%); } 25% { transform: translateY(15%) } 50% { transform: translateY(30%) } 75% { transform: translateY(15%) } 100% { transform: translateY(0%) } </style><g id="blog_banner 1" clip-path="url(#clip0)"><g id="Speech Bubble"><g id="Group"><g id="Group_2"><path id="Vector" d="M111.717 29.2261H17.6519V197.908H111.717V29.2261Z" fill="#EBEBEB"></path><path id="Vector_2" d="M106.989 34.1181H21.412V192.883H106.989V34.1181Z" fill="#FAFAFA"></path><path id="Vector_3" d="M106.989 35.9869L21.412 144.654V34.1181H106.989V35.9869Z" fill="#F5F5F5"></path><path id="Vector_4" d="M108.845 79.7868H21.412V81.475H108.845V79.7868Z" fill="#EBEBEB"></path><path id="Vector_5" d="M108.845 117.595H21.412V119.284H108.845V117.595Z" fill="#EBEBEB"></path><path id="Vector_6" d="M108.845 155.404H21.412V157.092H108.845V155.404Z" fill="#EBEBEB"></path><path id="Vector_7" d="M62.0412 80.6348L62.0412 197.382H66.3676V80.6348H62.0412Z" fill="#EBEBEB"></path><path id="Vector_8" d="M39.8505 34.1181H37.8918V80.6348H39.8505V34.1181Z" fill="#EBEBEB"></path><path id="Vector_9" d="M56.7393 34.1181H54.7806V80.6348H56.7393V34.1181Z" fill="#EBEBEB"></path><path id="Vector_10" d="M73.6361 34.1181H71.6774V80.6348H73.6361V34.1181Z" fill="#EBEBEB"></path><path id="Vector_11" d="M90.5328 34.1181H88.5741V80.6348H90.5328V34.1181Z" fill="#EBEBEB"></path><path id="Vector_12" d="M17.6519 26.3679H13.6716V198.953H17.6519V26.3679Z" fill="#F5F5F5"></path><path id="Vector_13" d="M115.697 199.424L111.717 197.908V26.3679H115.697V199.424Z" fill="#E0E0E0"></path><path id="Vector_14" d="M115.697 24.6247H13.6716V29.2261H115.697V24.6247Z" fill="#E0E0E0"></path><path id="Vector_15" d="M118.395 199.997H10.8555V204.284H118.395V199.997Z" fill="#E0E0E0"></path><path id="Vector_16" d="M111.717 197.908L118.387 199.997H10.8476L17.6519 197.908H111.717Z" fill="#EBEBEB"></path></g><g id="Group_3"><g id="Group_4"><path id="Vector_17" d="M516.349 134.376C516.349 134.376 509.694 133.897 510.308 148.785C510.921 163.672 512.447 171.603 512.447 171.603C512.447 171.603 512.251 174.909 509.686 174.257C507.122 173.606 502.308 170.394 499.924 172.797C497.541 175.2 498.351 179.079 501.608 183.609C504.864 188.14 511.692 198.23 512.306 199.149C512.919 200.068 513.148 201.74 511.33 201.575C509.513 201.41 497.266 197.264 495.637 203.185C494.009 209.106 505.203 220.154 506.398 221.379C507.594 222.604 507.665 223.389 507.185 224.135C506.705 224.881 502.709 223.098 499.177 222.062C495.645 221.025 491.366 220.436 490.713 223.931C490.06 227.425 494.992 237.656 513.439 248.406L522.312 252.827L530.713 247.48C548.019 234.916 551.857 224.276 550.866 220.86C549.875 217.445 545.667 218.458 542.253 219.84C538.839 221.222 535.055 223.397 534.497 222.706C533.938 222.015 533.922 221.23 534.992 219.887C536.062 218.544 546.084 206.444 543.873 200.712C541.663 194.979 529.895 200.335 528.141 200.672C526.386 201.01 526.418 199.314 526.929 198.356C527.441 197.398 533.222 186.632 536.015 181.827C538.807 177.021 539.311 173.134 536.605 170.904C533.899 168.674 529.525 172.428 527.039 173.331C524.554 174.234 524.034 170.975 524.034 170.975C524.034 170.975 524.75 162.934 523.869 148.054C522.988 133.174 516.223 134.376 516.223 134.376" fill="#B3CB51"></path><path id="Vector_18" d="M516.868 147.709C516.875 147.813 516.875 147.918 516.868 148.023L516.939 148.934C516.994 149.719 517.073 150.936 517.175 152.452C517.38 155.506 517.647 159.927 517.962 165.384C518.567 176.315 519.283 191.414 520.007 208.093C520.731 224.771 521.415 239.886 521.958 250.809C522.241 256.266 522.461 260.679 522.619 263.75C522.697 265.273 522.752 266.451 522.792 267.275C522.792 267.66 522.792 267.966 522.792 268.186C522.797 268.291 522.797 268.395 522.792 268.5C522.792 268.5 522.792 268.398 522.792 268.186C522.792 267.974 522.792 267.668 522.721 267.275C522.666 266.49 522.579 265.273 522.477 263.757C522.272 260.711 522.013 256.29 521.69 250.825C521.077 239.894 520.369 224.794 519.637 208.108C518.906 191.422 518.237 176.33 517.686 165.4C517.411 159.95 517.183 155.53 517.033 152.459C516.955 150.944 516.892 149.758 516.853 148.942C516.853 148.549 516.853 148.243 516.853 148.023C516.853 147.803 516.868 147.709 516.868 147.709Z" fill="#545454"></path><path id="Vector_19" d="M506.485 177.563C506.685 177.694 506.87 177.846 507.035 178.019C507.382 178.333 507.822 178.804 508.444 179.369C509.616 180.531 511.197 182.172 512.896 184.018C514.595 185.863 516.042 187.481 517.238 188.729L518.559 190.158C518.734 190.321 518.89 190.502 519.024 190.7C519.024 190.7 518.803 190.559 518.465 190.252C518.127 189.946 517.679 189.467 517.065 188.894C515.901 187.724 514.351 186.059 512.644 184.183L508.278 179.471C507.751 178.914 507.311 178.435 506.949 178.042C506.777 177.9 506.621 177.74 506.485 177.563V177.563Z" fill="#545454"></path><path id="Vector_20" d="M519.897 190.441C519.834 190.378 523.083 186.986 527.149 182.863C531.216 178.741 534.575 175.459 534.638 175.529C534.701 175.6 531.492 178.984 527.393 183.107C523.295 187.229 519.968 190.511 519.897 190.441Z" fill="#545454"></path><path id="Vector_21" d="M519.865 216.11C520.055 215.958 520.261 215.826 520.479 215.717L522.217 214.744C523.68 213.958 525.702 212.78 527.881 211.446C530.06 210.111 532.003 208.839 533.387 207.904L535.039 206.797C535.233 206.644 535.447 206.519 535.677 206.428C535.506 206.605 535.319 206.766 535.118 206.907C534.748 207.198 534.206 207.606 533.545 208.101C532.184 209.082 530.265 210.393 528.038 211.736C525.812 213.079 523.806 214.186 522.312 214.956C521.525 215.34 520.951 215.639 520.518 215.835C520.313 215.953 520.093 216.045 519.865 216.11V216.11Z" fill="#545454"></path><path id="Vector_22" d="M505.163 207.103C505.378 207.178 505.583 207.275 505.777 207.394C506.162 207.598 506.713 207.904 507.35 208.281C508.703 209.066 510.56 210.126 512.597 211.336C514.634 212.545 516.467 213.691 517.789 214.477C518.449 214.893 518.976 215.223 519.362 215.466C519.561 215.574 519.743 215.708 519.905 215.866C519.69 215.793 519.484 215.696 519.291 215.576C518.906 215.372 518.355 215.065 517.718 214.689C516.373 213.903 514.516 212.843 512.479 211.634C510.442 210.425 508.609 209.278 507.287 208.493C506.626 208.085 506.099 207.747 505.714 207.504C505.328 207.26 505.148 207.15 505.163 207.103Z" fill="#545454"></path><path id="Vector_23" d="M502.245 229.788C502.522 229.88 502.786 230.007 503.032 230.165L505.1 231.304C506.839 232.27 509.222 233.66 511.85 235.159C514.477 236.659 516.845 238.088 518.552 239.086L520.558 240.318C520.814 240.455 521.055 240.621 521.273 240.813C521.001 240.71 520.738 240.584 520.487 240.436L518.418 239.298C516.687 238.324 514.296 236.942 511.669 235.434C509.041 233.927 506.674 232.513 504.975 231.508L502.961 230.275C502.709 230.133 502.47 229.97 502.245 229.788Z" fill="#545454"></path><path id="Vector_24" d="M520.888 240.444C521.13 240.242 521.394 240.068 521.675 239.926L523.83 238.614C525.655 237.507 528.164 235.968 530.91 234.194C533.655 232.419 536.062 230.762 537.808 229.545L539.885 228.108C540.128 227.914 540.391 227.748 540.672 227.613C540.45 227.829 540.214 228.028 539.964 228.21C539.492 228.579 538.807 229.105 537.95 229.741C536.235 231.006 533.828 232.71 531.091 234.453C528.353 236.196 525.828 237.735 524.011 238.787C523.083 239.313 522.327 239.729 521.793 240.012C521.504 240.181 521.201 240.326 520.888 240.444V240.444Z" fill="#545454"></path></g><g id="Group_5"><path id="Vector_25" d="M534.221 255.732H509.671L517.686 316.273H526.213L534.221 255.732Z" fill="#8D8D8D"></path><path id="Vector_26" d="M510.945 263.168C510.945 263.168 510.945 263.255 511.079 263.388C511.24 263.574 511.442 263.719 511.669 263.812C512.097 263.96 512.554 264.007 513.004 263.952C513.454 263.896 513.885 263.738 514.265 263.49C515.256 262.949 516.121 261.873 517.411 261.402C518.881 260.929 520.467 260.959 521.918 261.488C523.4 261.99 524.813 262.674 526.127 263.522C527.222 264.209 528.362 264.82 529.541 265.351C530.344 265.711 531.194 265.957 532.066 266.082C532.303 266.117 532.542 266.132 532.782 266.129C532.939 266.129 533.026 266.129 533.026 266.129C531.861 265.95 530.728 265.609 529.659 265.116C528.508 264.554 527.392 263.925 526.316 263.231C524.988 262.353 523.552 261.648 522.044 261.135C520.507 260.579 518.827 260.56 517.277 261.08C516.621 261.345 516.014 261.719 515.484 262.187C515.039 262.578 514.568 262.94 514.076 263.271C513.735 263.505 513.348 263.664 512.941 263.735C512.534 263.807 512.116 263.791 511.716 263.687C511.427 263.567 511.165 263.39 510.945 263.168V263.168Z" fill="#F5F5F5"></path><path id="Vector_27" d="M511.842 274.326C511.842 274.326 512.038 274.075 512.424 273.675C512.976 273.121 513.646 272.698 514.383 272.434C515.475 272.038 516.635 271.861 517.797 271.916C519.23 272.027 520.657 272.221 522.068 272.497C523.508 272.777 524.983 272.838 526.442 272.678C527.633 272.524 528.794 272.193 529.887 271.696C530.621 271.368 531.315 270.957 531.956 270.471C532.201 270.308 532.421 270.109 532.609 269.882C531.703 270.476 530.754 271.001 529.769 271.453C528.694 271.902 527.56 272.198 526.402 272.332C524.975 272.461 523.538 272.389 522.131 272.12C520.703 271.839 519.257 271.653 517.804 271.562C516.599 271.525 515.4 271.736 514.28 272.183C513.521 272.487 512.845 272.966 512.306 273.581C512.165 273.751 512.041 273.935 511.936 274.13C511.893 274.189 511.861 274.256 511.842 274.326Z" fill="#F5F5F5"></path><path id="Vector_28" d="M531.444 280.294C531.244 280.134 531.014 280.014 530.768 279.941C530.113 279.7 529.427 279.555 528.731 279.509C527.702 279.444 526.67 279.502 525.655 279.682C524.514 279.87 523.295 280.184 521.997 280.467C520.798 280.745 519.57 280.882 518.339 280.875C517.341 280.851 516.356 280.637 515.437 280.247C514.598 279.86 513.848 279.304 513.234 278.614C513.328 278.852 513.469 279.069 513.651 279.25C514.114 279.779 514.682 280.206 515.319 280.506C516.261 280.95 517.283 281.201 518.324 281.244C519.586 281.275 520.847 281.143 522.076 280.852C523.382 280.577 524.601 280.255 525.718 280.066C526.705 279.876 527.71 279.792 528.715 279.815C529.641 279.86 530.558 280.021 531.444 280.294Z" fill="#F5F5F5"></path><path id="Vector_29" d="M514.013 288.688C514.756 288.369 515.581 288.287 516.373 288.453C517.237 288.663 518.074 288.974 518.866 289.379C519.884 289.869 520.982 290.169 522.107 290.267C524.158 290.451 526.215 289.975 527.975 288.908C528.503 288.589 528.994 288.213 529.439 287.785C529.737 287.471 529.887 287.291 529.871 287.267C529.221 287.773 528.54 288.24 527.834 288.665C526.097 289.621 524.114 290.039 522.139 289.866C519.818 289.74 518.032 288.351 516.42 288.17C515.8 288.062 515.164 288.116 514.571 288.327C514.178 288.492 513.997 288.673 514.013 288.688Z" fill="#F5F5F5"></path><path id="Vector_30" d="M515.382 300.31C516.085 300.327 516.784 300.188 517.427 299.901C518.662 299.493 520.188 298.551 521.973 297.844C522.801 297.505 523.683 297.319 524.577 297.294C525.304 297.295 526.022 297.459 526.677 297.773C527.273 298.092 527.791 298.537 528.196 299.077C528.162 298.889 528.081 298.713 527.96 298.566C527.666 298.132 527.272 297.774 526.811 297.522C526.127 297.151 525.364 296.947 524.585 296.925C523.641 296.927 522.706 297.111 521.832 297.467C519.983 298.205 518.504 299.179 517.325 299.642C516.145 300.105 515.374 300.247 515.382 300.31Z" fill="#F5F5F5"></path><path id="Vector_31" d="M516.585 305.72C517.083 305.96 517.613 306.13 518.158 306.222C519.437 306.531 520.735 306.749 522.044 306.874C523.351 307.004 524.665 307.043 525.977 306.992C526.524 307.009 527.071 306.943 527.598 306.796C527.598 306.678 525.112 306.796 522.092 306.474C519.071 306.152 516.617 305.602 516.585 305.72Z" fill="#F5F5F5"></path></g></g><g id="slide"><path id="Vector_32" d="M520.29 36.1675H444.491V85.9194H520.29V36.1675Z" fill="#E0E0E0"></path><path id="Vector_33" d="M517.616 38.2012H447.126V83.6894H517.616V38.2012Z" fill="#FAFAFA"></path><path id="Vector_34" d="M493.867 54.7774H470.874V67.2938H493.867V54.7774Z" fill="#70A5CF"></path></g><path id="Vector_35" d="M541.592 317.074C541.592 317.192 420.341 317.278 270.812 317.278C121.282 317.278 0 317.192 0 317.074C0 316.956 121.227 316.87 270.812 316.87C420.396 316.87 541.592 316.964 541.592 317.074Z" fill="#263238"></path><g id="Group_6"><path id="Vector_36" d="M204.004 0H366.332V154.328C366.332 157.706 364.987 160.946 362.595 163.334C360.202 165.723 356.957 167.065 353.573 167.065H204.004V0Z" fill="#EBEBEB"></path><g id="Group_7"><path id="Vector_37" d="M352.928 49.7205C352.928 50.0581 323.594 50.333 287.409 50.333C251.225 50.333 221.876 50.0581 221.876 49.7205C221.876 49.3828 251.209 49.108 287.409 49.108C323.61 49.108 352.928 49.3828 352.928 49.7205Z" fill="#455A64"></path><path id="Vector_38" d="M288.18 61.0513C288.18 61.389 273.691 61.6638 255.811 61.6638C237.931 61.6638 223.433 61.389 223.433 61.0513C223.433 60.7137 237.931 60.4388 255.811 60.4388C273.691 60.4388 288.18 60.698 288.18 61.0513Z" fill="#455A64"></path><path id="Vector_39" d="M314.06 59.9913C314.06 60.3289 310.222 60.6037 305.486 60.6037C300.751 60.6037 296.912 60.3289 296.912 59.9913C296.912 59.6536 300.751 59.3788 305.486 59.3788C310.222 59.3788 314.06 59.6536 314.06 59.9913Z" fill="#455A64"></path><path id="Vector_40" d="M356.428 59.2924C356.428 59.63 348.829 59.9049 339.453 59.9049C330.076 59.9049 322.477 59.63 322.477 59.2924C322.477 58.9548 330.076 58.6799 339.453 58.6799C348.829 58.6799 356.428 58.9548 356.428 59.2924Z" fill="#455A64"></path><path id="Vector_41" d="M282.776 71.8639C282.776 72.2094 269.144 72.4842 252.326 72.4842C235.508 72.4842 221.876 72.2094 221.876 71.8639C221.876 71.5184 235.508 71.2514 252.326 71.2514C269.144 71.2514 282.776 71.5262 282.776 71.8639Z" fill="#455A64"></path><path id="Vector_42" d="M356.428 71.5576C356.428 71.8953 341.545 72.1701 323.185 72.1701C304.825 72.1701 289.935 71.8953 289.935 71.5576C289.935 71.22 304.818 70.9452 323.185 70.9452C341.553 70.9452 356.428 71.2121 356.428 71.5576Z" fill="#455A64"></path><path id="Vector_43" d="M356.428 82.4566C356.428 82.7942 349.805 83.069 341.624 83.069C333.443 83.069 326.819 82.7942 326.819 82.4566C326.819 82.1189 333.451 81.8362 341.624 81.8362C349.797 81.8362 356.428 82.1111 356.428 82.4566Z" fill="#455A64"></path></g><path id="Vector_44" d="M295.181 37.5888C295.181 37.9264 279.118 38.2012 259.311 38.2012C239.504 38.2012 223.433 37.9264 223.433 37.5888C223.433 37.2511 239.496 36.9763 259.311 36.9763C279.126 36.9763 295.181 37.2511 295.181 37.5888Z" fill="#B3CB51"></path></g><g id="Group_8"><g id="Group_9"><path id="Vector_45" d="M394.973 93.5754H80.6921C74.3623 93.5754 69.231 98.6976 69.231 105.016V304.723C69.231 311.041 74.3623 316.163 80.6921 316.163H394.973C401.303 316.163 406.434 311.041 406.434 304.723V105.016C406.434 98.6976 401.303 93.5754 394.973 93.5754Z" fill="#263238"></path><path id="Vector_46" d="M55.6066 299.705H420.931V305.202C420.931 308.908 419.456 312.464 416.83 315.085C414.204 317.706 410.643 319.179 406.929 319.179H69.6007C65.8871 319.179 62.3257 317.706 59.6998 315.085C57.0739 312.464 55.5987 308.908 55.5987 305.202V299.705H55.6066Z" fill="#263238"></path><path id="Vector_47" d="M396.908 102.417H78.757V290.392H396.908V102.417Z" fill="#455A64"></path><path id="Vector_48" d="M205.066 299.697H206.489H210.643L226.053 299.634L277.6 299.524H277.978L277.789 299.854L275.744 303.356L273.581 307.055L273.518 307.165H273.392L209.596 307.047H209.541V307L206.198 301.574L205.357 300.2L205.089 299.744C205.089 299.744 205.207 299.909 205.404 300.223L206.301 301.597C207.087 302.814 208.22 304.589 209.707 306.89L209.62 306.843L273.415 306.725L273.227 306.835L275.39 303.136L277.435 299.634L277.624 299.964L226.289 299.854L210.776 299.76H206.56H205.451L205.066 299.697Z" fill="#455A64"></path></g><g id="Group_10"><path id="Vector_49" d="M406.434 299.697C406.434 299.815 330.918 299.901 237.844 299.901C144.771 299.901 69.2388 299.815 69.2388 299.697C69.2388 299.579 144.708 299.493 237.844 299.493C330.981 299.493 406.434 299.587 406.434 299.697Z" fill="#455A64"></path></g></g><path id="Vector_50" d="M320.353 64.8754C322.857 64.8754 325.258 65.8681 327.028 67.6352C328.798 69.4023 329.793 71.799 329.793 74.2981V93.5911H301.632V75.7743C301.631 74.3427 301.912 72.925 302.461 71.6022C303.009 70.2794 303.813 69.0775 304.827 68.0653C305.841 67.053 307.045 66.2502 308.371 65.7029C309.696 65.1555 311.116 64.8743 312.55 64.8754H320.353Z" fill="#263238"></path><path id="Vector_51" d="M320.353 64.8754C320.353 64.9931 293.781 65.056 261.002 65.0324C228.224 65.0088 201.652 64.8832 201.652 64.7733C201.652 64.6633 228.216 64.5927 261.002 64.6162C293.789 64.6398 320.353 64.7654 320.353 64.8754Z" fill="#263238"></path><path id="Vector_52" d="M320.133 64.8518L308.381 64.7733L291.319 64.8754H165.978C160.867 64.8754 155.965 66.9022 152.35 70.51C148.736 74.1179 146.706 79.0111 146.706 84.1134V290.84H309.034V75.4209C309.514 64.8754 320.133 64.8518 320.133 64.8518Z" fill="#FAFAFA"></path><path id="Vector_53" d="M320.133 64.8518L222.253 65.0638H173.317H167.197C166.175 65.0638 165.168 65.0638 164.161 65.1502C163.16 65.2563 162.169 65.4374 161.195 65.692C158.257 66.4486 155.544 67.8993 153.285 69.9218C151.026 71.9444 149.288 74.4795 148.216 77.3133C148.059 77.7923 147.838 78.2478 147.728 78.7346L147.359 80.1951C147.167 81.1822 147.048 82.1822 147.005 83.1868C146.918 87.2307 147.005 91.3218 147.005 95.3892L147.138 290.793L146.745 290.4L309.073 290.51L308.79 290.793L308.869 174.579L308.963 116.473L309.018 87.4192V80.1558V76.5203C308.995 75.9147 309.018 75.3083 309.089 74.7064C309.131 74.102 309.228 73.5027 309.38 72.9161C309.887 70.5161 311.294 68.4006 313.313 67.0033C314.31 66.308 315.412 65.7777 316.578 65.4329C317.732 65.0852 318.928 64.8899 320.133 64.8518V64.8518ZM320.133 64.8518C318.92 64.9059 317.719 65.1198 316.562 65.4878C315.401 65.8377 314.302 66.3676 313.305 67.0583C311.301 68.4612 309.91 70.5769 309.419 72.971C309.27 73.5551 309.175 74.1518 309.136 74.7535C309.072 75.3558 309.051 75.962 309.073 76.5674V87.4585L309.136 116.512L309.223 174.619L309.301 290.832V291.122H309.01L146.682 291.225H146.297V290.832L146.423 95.4285C146.423 91.3532 146.423 87.2936 146.478 83.2025C146.523 82.1717 146.644 81.1456 146.839 80.1323L147.233 78.6404C147.343 78.1378 147.571 77.6667 147.728 77.1798C148.831 74.2747 150.617 71.6768 152.936 69.6051C155.255 67.5334 158.039 66.0486 161.054 65.2758C162.054 65.0179 163.071 64.8341 164.098 64.7262C165.129 64.6712 166.159 64.6162 167.174 64.6398H173.294H222.23L320.133 64.8518Z" fill="#263238"></path><path id="Vector_54" d="M171.162 102.072H199.48L199.528 111.541H198.167C197.726 108.154 196.457 105.862 194.36 104.663C192.704 103.901 190.895 103.533 189.073 103.587V128.322C189.073 130.057 189.372 131.203 189.978 131.769C190.584 132.334 191.842 132.617 193.762 132.617V133.81H176.999V132.617C178.832 132.617 180.059 132.326 180.657 131.753C181.254 131.18 181.569 130.041 181.569 128.322V103.587C179.748 103.544 177.941 103.911 176.283 104.663C174.033 105.896 172.759 108.181 172.468 111.541H171.115L171.162 102.072Z" fill="#E8505B"></path><path id="Vector_55" d="M286.757 104.239C286.757 104.576 271.134 104.851 251.862 104.851C232.59 104.851 216.967 104.576 216.967 104.239C216.967 103.901 232.59 103.626 251.862 103.626C271.134 103.626 286.757 103.87 286.757 104.239Z" fill="#FFD500"></path><path id="Vector_56" d="M245.349 115.342C245.349 115.679 239.307 115.954 231.858 115.954C224.409 115.954 218.367 115.679 218.367 115.342C218.367 115.004 224.409 114.721 231.858 114.721C239.307 114.721 245.349 114.996 245.349 115.342Z" fill="#455A64"></path><path id="Vector_57" d="M211.335 149.295C211.335 149.633 199.866 149.907 185.715 149.907C171.563 149.907 160.086 149.633 160.086 149.295C160.086 148.957 171.555 148.683 185.715 148.683C199.874 148.683 211.335 148.997 211.335 149.295Z" fill="#455A64"></path><path id="Vector_58" d="M269.372 149.295C269.372 149.633 257.895 149.907 243.752 149.907C229.608 149.907 218.124 149.633 218.124 149.295C218.124 148.957 229.593 148.683 243.752 148.683C257.911 148.683 269.372 148.997 269.372 149.295Z" fill="#FFD500"></path><path id="Vector_59" d="M211.335 158.364C211.335 158.702 199.866 158.977 185.715 158.977C171.563 158.977 160.086 158.702 160.086 158.364C160.086 158.027 171.555 157.752 185.715 157.752C199.874 157.752 211.335 158.027 211.335 158.364Z" fill="#455A64"></path><path id="Vector_60" d="M211.335 167.434C211.335 167.771 199.866 168.046 185.715 168.046C171.563 168.046 160.086 167.771 160.086 167.434C160.086 167.096 171.555 166.813 185.715 166.813C199.874 166.813 211.335 167.057 211.335 167.434Z" fill="#FFD500"></path><path id="Vector_61" d="M245.349 133.81C245.349 134.148 239.307 134.423 231.858 134.423C224.409 134.423 218.367 134.148 218.367 133.81C218.367 133.473 224.409 133.198 231.858 133.198C239.307 133.198 245.349 133.473 245.349 133.81Z" fill="#455A64"></path><path id="Vector_62" d="M292.153 149.295C292.153 149.633 288.125 149.907 283.162 149.907C278.198 149.907 274.163 149.633 274.163 149.295C274.163 148.957 278.19 148.683 283.162 148.683C288.133 148.683 292.153 148.997 292.153 149.295Z" fill="#455A64"></path><path id="Vector_63" d="M296.967 115.342C296.967 115.679 286.599 115.954 273.817 115.954C261.034 115.954 250.666 115.679 250.666 115.342C250.666 115.004 261.026 114.721 273.817 114.721C286.607 114.721 296.967 114.996 296.967 115.342Z" fill="#455A64"></path><path id="Vector_64" d="M294.875 124.183C294.875 124.521 277.75 124.796 256.621 124.796C235.492 124.796 218.367 124.521 218.367 124.183C218.367 123.846 235.492 123.571 256.621 123.571C277.75 123.571 294.875 123.869 294.875 124.183Z" fill="#455A64"></path><path id="Vector_65" d="M292.153 158.364C292.153 158.702 275.579 158.977 255.181 158.977C234.784 158.977 218.163 158.702 218.163 158.364C218.163 158.027 234.729 157.752 255.181 157.752C275.634 157.752 292.153 158.027 292.153 158.364Z" fill="#455A64"></path><path id="Vector_66" d="M292.153 184.614C292.153 184.952 276.601 185.227 257.423 185.227C238.245 185.227 222.686 184.952 222.686 184.614C222.686 184.277 238.238 184.002 257.423 184.002C276.609 184.002 292.153 184.277 292.153 184.614Z" fill="#FFD500"></path><path id="Vector_67" d="M292.153 193.44C292.153 193.778 276.601 194.053 257.423 194.053C238.245 194.053 222.686 193.778 222.686 193.44C222.686 193.103 238.238 192.828 257.423 192.828C276.609 192.828 292.153 193.103 292.153 193.44Z" fill="#455A64"></path><path id="Vector_68" d="M292.153 202.266C292.153 202.604 276.601 202.879 257.423 202.879C238.245 202.879 222.686 202.604 222.686 202.266C222.686 201.929 238.238 201.654 257.423 201.654C276.609 201.654 292.153 201.929 292.153 202.266Z" fill="#455A64"></path><path id="Vector_69" d="M292.153 211.092C292.153 211.43 276.601 211.705 257.423 211.705C238.245 211.705 222.686 211.43 222.686 211.092C222.686 210.755 238.238 210.48 257.423 210.48C276.609 210.48 292.153 210.755 292.153 211.092Z" fill="#455A64"></path><path id="Vector_70" d="M262.678 219.918C262.678 220.083 260.436 220.24 256.818 220.35C253.199 220.46 248.165 220.531 242.658 220.531C237.152 220.531 232.133 220.46 228.499 220.35C224.865 220.24 222.647 220.083 222.647 219.918C222.647 219.753 224.881 219.596 228.499 219.486C232.118 219.376 237.152 219.306 242.658 219.306C248.165 219.306 253.176 219.376 256.818 219.486C260.46 219.596 262.678 219.745 262.678 219.918Z" fill="#455A64"></path><g id="image"><path id="Vector_72" d="M210.124 185.612L213.813 253.738L147.075 262.077L147.028 185.038L210.124 185.612Z" fill="#E0E0E0"></path><path id="Vector_73" d="M123.725 180.899L123.258 253.17L213.812 253.754L214.28 181.483L123.725 180.899Z" fill="#F5F5F5"></path><path id="Vector_74" d="M126.818 185.466L126.409 248.636L210.6 249.179L211.009 186.009L126.818 185.466Z" fill="#FFD500"></path><g id="Group_11" opacity="0.2"><path id="Vector_75" opacity="0.2" d="M126.403 248.626L156.067 209.553L174.12 234.233L186.564 221.182L210.595 249.168L126.403 248.626Z" fill="black"></path></g><g id="Group_12" opacity="0.2"><path id="Vector_76" opacity="0.2" d="M182.041 204.905C182.033 206.214 181.636 207.492 180.901 208.576C180.165 209.661 179.124 210.503 177.909 210.997C176.694 211.49 175.36 211.613 174.075 211.349C172.79 211.085 171.612 210.447 170.69 209.515C169.769 208.583 169.145 207.399 168.898 206.113C168.65 204.827 168.791 203.497 169.301 202.29C169.811 201.084 170.668 200.056 171.764 199.336C172.86 198.616 174.145 198.237 175.457 198.246C176.327 198.251 177.188 198.427 177.99 198.765C178.793 199.102 179.52 199.595 180.132 200.213C180.743 200.831 181.227 201.564 181.554 202.369C181.882 203.174 182.047 204.036 182.041 204.905V204.905Z" fill="black"></path></g></g><path id="Vector_71" d="M279.567 167.905C279.567 168.242 266.194 168.517 249.675 168.517C233.156 168.517 219.783 168.242 219.783 167.905C219.783 167.567 233.156 167.292 249.675 167.292C266.194 167.292 279.567 167.567 279.567 167.905Z" fill="#455A64"></path><g id="Group_13"><path id="Vector_77" d="M222.529 270.785C222.529 271.062 222.446 271.332 222.293 271.562C222.139 271.792 221.92 271.971 221.664 272.076C221.408 272.182 221.127 272.21 220.855 272.156C220.584 272.102 220.334 271.969 220.138 271.773C219.943 271.578 219.809 271.329 219.755 271.058C219.701 270.787 219.729 270.506 219.835 270.25C219.941 269.995 220.12 269.777 220.351 269.623C220.581 269.469 220.851 269.387 221.128 269.387C221.313 269.386 221.495 269.422 221.665 269.492C221.836 269.562 221.991 269.664 222.121 269.794C222.251 269.924 222.354 270.079 222.424 270.249C222.494 270.419 222.53 270.601 222.529 270.785V270.785Z" fill="#E8505B"></path><path id="Vector_78" d="M230.843 270.785C230.843 271.062 230.761 271.332 230.607 271.562C230.453 271.792 230.235 271.971 229.979 272.076C229.723 272.182 229.441 272.21 229.17 272.156C228.898 272.102 228.649 271.969 228.453 271.773C228.257 271.578 228.124 271.329 228.07 271.058C228.016 270.787 228.043 270.506 228.149 270.25C228.255 269.995 228.435 269.777 228.665 269.623C228.895 269.469 229.166 269.387 229.443 269.387C229.814 269.387 230.171 269.535 230.433 269.797C230.696 270.059 230.843 270.414 230.843 270.785V270.785Z" fill="#FFD500"></path><path id="Vector_79" d="M239.15 270.785C239.15 271.062 239.068 271.332 238.914 271.562C238.76 271.792 238.542 271.971 238.286 272.076C238.03 272.182 237.748 272.21 237.477 272.156C237.205 272.102 236.956 271.969 236.76 271.773C236.564 271.578 236.431 271.329 236.377 271.058C236.323 270.787 236.35 270.506 236.456 270.25C236.562 269.995 236.742 269.777 236.972 269.623C237.202 269.469 237.473 269.387 237.75 269.387C238.121 269.387 238.477 269.535 238.74 269.797C239.003 270.059 239.15 270.414 239.15 270.785V270.785Z" fill="#B3CB51"></path></g><path id="Vector_80" d="M269.766 238.308C269.766 238.646 258.289 238.921 244.137 238.921C229.986 238.921 218.509 238.646 218.509 238.308C218.509 237.971 229.986 237.696 244.137 237.696C258.289 237.696 269.766 237.971 269.766 238.308Z" fill="#FFD500"></path><path id="Vector_81" d="M292.546 247.378C292.546 247.715 275.972 247.99 255.528 247.99C235.083 247.99 218.509 247.715 218.509 247.378C218.509 247.04 235.083 246.765 255.528 246.765C275.972 246.765 292.546 247.04 292.546 247.378Z" fill="#455A64"></path><g id="Group_14"><path id="Vector_82" d="M457.312 263.505L456.876 307.037L511.421 307.582L511.857 264.049L457.312 263.505Z" fill="#F5F5F5"></path><path id="Vector_83" d="M457.288 265.251L457.042 303.302L507.755 303.629L508.001 265.578L457.288 265.251Z" fill="#B3CB51"></path><path id="Vector_84" opacity="0.2" d="M457.03 303.293L474.894 279.752L485.773 294.617L493.27 286.757L507.743 303.615L457.03 303.293Z" fill="black"></path><g id="Group_15" opacity="0.2"><path id="Vector_85" opacity="0.2" d="M490.548 276.988C490.545 277.778 490.307 278.548 489.865 279.203C489.423 279.857 488.796 280.366 488.065 280.665C487.333 280.963 486.529 281.039 485.754 280.881C484.979 280.724 484.269 280.34 483.712 279.779C483.156 279.218 482.779 278.505 482.629 277.731C482.478 276.956 482.562 276.154 482.868 275.426C483.175 274.699 483.691 274.078 484.351 273.643C485.01 273.209 485.785 272.979 486.575 272.984C487.634 272.99 488.647 273.415 489.391 274.166C490.136 274.917 490.552 275.932 490.548 276.988V276.988Z" fill="black"></path></g></g><g id="Group_16"><path id="Vector_86" d="M447.43 257.953L447.148 301.485L501.691 301.837L501.973 258.305L447.43 257.953Z" fill="#F5F5F5"></path><path id="Vector_87" d="M449.299 260.698L449.053 298.75L499.766 299.077L500.012 261.025L449.299 260.698Z" fill="#FFD500"></path><path id="Vector_88" opacity="0.2" d="M449.03 298.747L466.894 275.206L477.773 290.07L485.27 282.21L499.743 299.069L449.03 298.747Z" fill="black"></path><g id="Group_17" opacity="0.2"><path id="Vector_89" opacity="0.2" d="M482.548 272.411C482.543 273.201 482.303 273.972 481.858 274.627C481.413 275.281 480.784 275.788 480.05 276.085C479.316 276.381 478.51 276.453 477.734 276.291C476.959 276.129 476.249 275.741 475.696 275.176C475.142 274.611 474.768 273.895 474.623 273.117C474.478 272.34 474.568 271.537 474.881 270.811C475.193 270.085 475.715 269.468 476.38 269.038C477.045 268.608 477.823 268.386 478.615 268.398C479.668 268.415 480.672 268.845 481.408 269.597C482.145 270.348 482.554 271.359 482.548 272.411Z" fill="black"></path></g></g><g id="Group_18"><path id="Vector_90" d="M440.312 254.199L440.03 297.731L494.574 298.083L494.855 254.551L440.312 254.199Z" fill="#F5F5F5"></path><path id="Vector_91" d="M442.166 256.944L441.92 294.995L492.633 295.322L492.879 257.271L442.166 256.944Z" fill="#70A5CF"></path><path id="Vector_92" opacity="0.2" d="M441.911 294.986L459.775 271.445L470.654 286.317L478.143 278.457L492.624 295.316L441.911 294.986Z" fill="black"></path><g id="Group_19" opacity="0.2"><path id="Vector_93" opacity="0.2" d="M475.421 268.649C475.416 269.44 475.176 270.211 474.731 270.865C474.287 271.519 473.657 272.027 472.923 272.323C472.189 272.62 471.383 272.692 470.608 272.53C469.832 272.368 469.123 271.98 468.569 271.415C468.015 270.85 467.642 270.133 467.497 269.356C467.351 268.579 467.441 267.776 467.754 267.05C468.067 266.324 468.589 265.706 469.253 265.277C469.918 264.847 470.696 264.624 471.488 264.637C472.541 264.653 473.545 265.084 474.281 265.835C475.018 266.587 475.427 267.598 475.421 268.649Z" fill="black"></path></g></g><g id="Group_20"><path id="Vector_94" d="M434.104 259.856L433.667 303.389L488.212 303.934L488.648 260.401L434.104 259.856Z" fill="#F5F5F5"></path><path id="Vector_95" d="M434.177 261.623L433.931 299.674L484.644 300.001L484.89 261.95L434.177 261.623Z" fill="#455A64"></path><path id="Vector_96" opacity="0.2" d="M433.911 299.666L451.775 276.125L462.654 290.989L470.143 283.129L484.625 299.988L433.911 299.666Z" fill="black"></path><g id="Group_21" opacity="0.2"><path id="Vector_97" opacity="0.2" d="M467.452 273.329C467.448 274.12 467.208 274.891 466.763 275.545C466.318 276.199 465.689 276.707 464.954 277.003C464.22 277.3 463.414 277.372 462.639 277.21C461.864 277.048 461.154 276.66 460.6 276.095C460.046 275.53 459.673 274.813 459.528 274.036C459.383 273.259 459.472 272.456 459.785 271.73C460.098 271.003 460.62 270.386 461.285 269.957C461.95 269.527 462.727 269.304 463.519 269.317C464.574 269.329 465.58 269.759 466.317 270.511C467.055 271.263 467.463 272.277 467.452 273.329Z" fill="black"></path></g></g><g id="Group_22"><path id="Vector_98" d="M518.324 275.049H486.835V317.082H518.324V275.049Z" fill="#263238"></path><path id="Vector_99" d="M426.548 275.049V317.074H489.478V275.049H426.548ZM464.739 284.99H451.366C450.598 284.99 449.862 284.685 449.319 284.143C448.776 283.602 448.471 282.867 448.471 282.1C448.471 281.334 448.776 280.599 449.319 280.057C449.862 279.515 450.598 279.211 451.366 279.211H464.739C465.506 279.211 466.243 279.515 466.786 280.057C467.328 280.599 467.633 281.334 467.633 282.1C467.633 282.867 467.328 283.602 466.786 284.143C466.243 284.685 465.506 284.99 464.739 284.99Z" fill="#E8505B"></path></g><g id="Group_23"><path id="Vector_100" d="M385.683 312.685L327.118 309.104C326.749 308.264 326.505 307.777 326.505 307.777L310.631 308.099L305.463 307.777L305.258 308.201L251.972 309.261C241.345 309.261 230.175 315.731 230.175 324C230.041 331.852 233.864 340.411 243.382 340.215L315.98 339.971L388.585 340.215C398.103 340.411 400.621 334.718 400.636 327.879C401.746 315.221 393.801 312.787 385.683 312.685Z" fill="#455A64"></path><path id="Vector_101" d="M250.045 340.223H250.391H251.421L255.355 340.183L269.97 340.121L318.741 340.058L318.536 340.27C318.434 338.699 318.332 336.98 318.222 335.268C318.001 331.766 317.789 328.311 317.585 325.06L317.765 325.248L272.849 320.176L259.539 318.66L255.952 318.228L255.024 318.111C254.92 318.102 254.818 318.083 254.717 318.056H255.032L255.96 318.142L259.555 318.495L272.881 319.893L317.805 324.746H317.97V324.911C318.182 328.193 318.395 331.64 318.615 335.119C318.725 336.83 318.827 338.534 318.93 340.121V340.34H318.717L269.946 340.27L255.331 340.207H251.398H250.367L250.045 340.223Z" fill="#263238"></path><path id="Vector_102" d="M265.014 319.43C264.967 319.485 264.228 318.896 262.961 318.119C261.293 317.106 259.501 316.314 257.628 315.763C255.751 315.229 253.813 314.944 251.862 314.915C250.367 314.915 249.439 315.009 249.431 314.915C249.637 314.832 249.855 314.782 250.076 314.766C250.667 314.674 251.264 314.622 251.862 314.609C255.859 314.492 259.793 315.62 263.118 317.836C263.619 318.165 264.097 318.527 264.55 318.919C264.865 319.241 265.03 319.391 265.014 319.43Z" fill="#263238"></path><path id="Vector_103" d="M381.136 316.32C381.136 316.43 369.612 319.218 355.343 322.547C341.073 325.877 329.47 328.484 329.447 328.374C329.423 328.264 340.971 325.476 355.248 322.147C369.525 318.817 381.112 316.25 381.136 316.32Z" fill="#263238"></path><path id="Vector_104" d="M371.374 315.19C369.791 315.75 368.272 316.477 366.843 317.357C365.495 318.353 364.263 319.496 363.169 320.765C363.345 320.291 363.612 319.856 363.956 319.485C365.485 317.571 367.562 316.168 369.911 315.464C370.378 315.286 370.874 315.193 371.374 315.19V315.19Z" fill="#263238"></path></g><path id="Vector_105" d="M349.569 248.814L368.125 281.056C369.253 283.016 369.877 285.224 369.942 287.484C370.006 289.743 369.509 291.983 368.495 294.004C367.325 296.336 365.513 298.287 363.27 299.626C361.028 300.966 358.45 301.639 355.838 301.566L327.347 300.781L326.599 290.439L351.685 285.626L334.772 256.4L349.569 248.814Z" fill="#FFBE9D"></path><path id="Vector_106" d="M280.424 303.984L306.619 310.91L307.193 303.058L283.052 289.065L300.688 256.4L285.891 248.814L267.335 281.056C266.281 283.009 265.672 285.171 265.55 287.386C265.428 289.601 265.798 291.816 266.631 293.873C267.465 295.93 268.743 297.777 270.374 299.285C272.004 300.792 273.948 301.923 276.066 302.595L280.424 303.984Z" fill="#FFBE9D"></path><path id="Vector_107" d="M341.695 269.513L359.598 260.09C357.395 255.633 354.83 251.362 351.929 247.323C346.383 239.667 337.769 234.319 328.015 232.278L307.421 232.521C304.906 232.743 302.433 233.311 300.074 234.209V234.131C288.896 236.589 276.475 260.923 276.475 260.923L292.821 269.49L293.183 272.049C293.662 275.441 295.141 278.615 297.431 281.166L292.711 312.316L345.525 313.407L338.816 291.122L341.695 269.513Z" fill="#70A5CF"></path><path id="Vector_108" d="M297.895 281.339C297.608 281.176 297.343 280.975 297.109 280.742C296.43 280.146 295.825 279.471 295.307 278.732C293.61 276.242 292.829 273.243 293.097 270.243C293.364 268.641 293.769 267.065 294.308 265.532C294.78 264.111 295.268 262.854 295.685 261.802C296.102 260.75 296.471 259.91 296.723 259.337C296.838 259.028 296.991 258.735 297.179 258.465C297.107 258.785 297.004 259.098 296.873 259.399C296.629 260.067 296.322 260.907 295.952 261.904C295.583 262.901 295.118 264.26 294.67 265.65C294.152 267.169 293.763 268.73 293.506 270.314C293.375 271.899 293.526 273.494 293.954 275.025C294.292 276.285 294.823 277.484 295.527 278.582C296.238 279.565 297.03 280.487 297.895 281.339Z" fill="#263238"></path><g id="Group_24"><path id="Vector_109" d="M289.966 319.838L286.977 285.092H351.386L347.122 320.27L289.966 319.838Z" fill="#263238"></path><path id="Vector_110" d="M323.287 303.623C323.289 304.435 323.049 305.228 322.599 305.903C322.148 306.579 321.507 307.105 320.756 307.416C320.006 307.728 319.179 307.81 318.382 307.652C317.585 307.494 316.853 307.103 316.278 306.529C315.703 305.956 315.312 305.225 315.154 304.429C314.995 303.633 315.077 302.808 315.389 302.059C315.701 301.31 316.228 300.67 316.905 300.22C317.581 299.77 318.376 299.531 319.189 299.532C320.276 299.532 321.319 299.963 322.087 300.73C322.856 301.498 323.287 302.538 323.287 303.623Z" fill="#FAFAFA"></path></g><g id="Group_25"><path id="Vector_111" d="M318.056 326.63L328.991 328.154V340.018L318.937 339.759L318.056 326.63Z" fill="#FFBE9D"></path><g id="Group_26"><path id="Vector_112" d="M329.006 328.146H333.923C334.879 328.146 335.817 328.398 336.644 328.876L339.232 330.384C340.697 331.194 342.21 331.912 343.763 332.535C346.753 333.493 351.779 334.789 352.841 335.606C355.862 337.961 354.941 340.686 353.282 340.969C351.826 341.228 328.998 340.026 328.998 340.026L329.006 328.146Z" fill="#E8505B"></path><path id="Vector_113" d="M337.069 339.021C336.688 338.038 336.509 336.989 336.542 335.935C336.437 334.876 336.555 333.806 336.888 332.794C336.967 333.824 336.988 334.857 336.951 335.888C337.052 336.929 337.092 337.975 337.069 339.021V339.021Z" fill="#263238"></path><path id="Vector_114" d="M339.405 338.966C339.148 337.087 339.164 335.18 339.453 333.305C339.643 334.237 339.704 335.191 339.634 336.139C339.69 337.088 339.613 338.039 339.405 338.966Z" fill="#263238"></path><path id="Vector_115" d="M342.159 339.437C341.735 337.523 341.581 335.56 341.702 333.603C341.98 334.545 342.125 335.52 342.135 336.501C342.277 337.474 342.285 338.462 342.159 339.437V339.437Z" fill="#263238"></path><path id="Vector_116" d="M334.945 335.88C334.594 335.834 334.254 335.728 333.938 335.566C333.044 335.192 332.213 334.68 331.476 334.051C331.248 333.854 331.012 333.635 330.776 333.391C330.511 333.142 330.297 332.843 330.147 332.512C330.061 332.313 330.03 332.095 330.054 331.88C330.079 331.666 330.16 331.461 330.288 331.287C330.44 331.103 330.657 330.984 330.894 330.957C331.12 330.932 331.348 330.956 331.563 331.028C332.42 331.335 333.173 331.875 333.74 332.587C334.307 333.298 334.663 334.153 334.77 335.056C334.877 335.958 334.73 336.873 334.346 337.697C333.961 338.521 333.354 339.221 332.593 339.72C332.253 339.964 331.868 340.137 331.461 340.23C331.251 340.281 331.033 340.281 330.823 340.23C330.715 340.195 330.615 340.138 330.53 340.062C330.445 339.986 330.376 339.894 330.328 339.791C330.258 339.605 330.234 339.405 330.259 339.208C330.284 339.011 330.356 338.823 330.469 338.66C330.641 338.37 330.853 338.105 331.099 337.875C331.798 337.201 332.621 336.668 333.521 336.304C333.84 336.151 334.184 336.055 334.536 336.022C334.536 336.022 334.19 336.163 333.584 336.454C332.734 336.864 331.962 337.419 331.303 338.095C331.083 338.302 330.895 338.54 330.745 338.801C330.664 338.921 330.612 339.057 330.591 339.2C330.571 339.343 330.583 339.488 330.627 339.626C330.706 339.755 330.828 339.852 330.972 339.9C331.116 339.949 331.272 339.946 331.413 339.893C331.768 339.803 332.102 339.645 332.397 339.43C333.092 338.965 333.646 338.318 333.997 337.56C334.348 336.802 334.483 335.961 334.386 335.131C334.289 334.302 333.965 333.515 333.449 332.857C332.933 332.199 332.245 331.697 331.461 331.405C331.318 331.334 331.158 331.309 331.001 331.331C330.843 331.353 330.696 331.423 330.58 331.53C330.49 331.655 330.434 331.801 330.417 331.954C330.4 332.106 330.424 332.261 330.485 332.402C330.785 332.959 331.194 333.451 331.689 333.847C332.666 334.684 333.764 335.369 334.945 335.88V335.88Z" fill="#263238"></path></g><path id="Vector_117" d="M353.282 340.961C353.531 340.741 353.734 340.474 353.879 340.176C354.023 339.767 354.069 339.33 354.013 338.901C353.957 338.471 353.801 338.061 353.557 337.702C352.849 336.605 351.772 335.795 350.521 335.417C349.128 334.915 347.476 334.679 345.801 334.153C342.937 333.295 340.204 332.054 337.675 330.462C336.715 329.85 335.968 329.3 335.464 328.892C335.19 328.702 334.939 328.481 334.717 328.232C335.014 328.381 335.296 328.557 335.559 328.758C336.086 329.112 336.849 329.622 337.832 330.203C340.374 331.707 343.09 332.899 345.919 333.752C347.563 334.263 349.207 334.538 350.638 335.048C351.957 335.475 353.075 336.365 353.785 337.553C354.034 337.951 354.182 338.403 354.218 338.871C354.253 339.338 354.175 339.807 353.99 340.238C353.865 340.459 353.693 340.65 353.486 340.796C353.392 340.937 353.289 340.976 353.282 340.961Z" fill="#263238"></path></g><path id="Vector_118" d="M345.832 240.813C345.842 240.87 345.842 240.929 345.832 240.986V241.473C345.793 241.928 345.73 242.564 345.659 243.373C345.486 245.061 345.242 247.472 344.943 250.503V250.683L344.778 250.597L335.229 245.579L335.457 245.517L330.296 254.217L330.186 254.397L330.013 254.272L321.36 247.621H321.612L317.828 250.581L312.668 254.609L312.479 254.759L312.369 254.547L307.453 245.477L307.697 245.556L297.282 250.189L297.085 250.275V250.071L295.512 240.821L295.669 240.915L289.675 243.224L288.102 243.805L287.693 243.954L287.551 243.993C287.551 243.993 287.59 243.993 287.677 243.923L288.078 243.75L289.651 243.106L295.575 240.75L295.708 240.703V240.844C296.173 243.42 296.723 246.522 297.36 250.079L297.14 249.961L307.531 245.25L307.697 245.179L307.783 245.328C309.356 248.202 310.993 251.233 312.715 254.397L312.408 254.335L317.569 250.299L321.352 247.338L321.478 247.244L321.604 247.338L330.257 254.005L329.974 254.06L335.173 245.422L335.252 245.289L335.394 245.36L344.833 250.432L344.652 250.526L345.486 243.412C345.588 242.627 345.667 241.975 345.722 241.52C345.722 241.323 345.777 241.166 345.793 241.033C345.8 240.959 345.813 240.885 345.832 240.813V240.813Z" fill="#F5F5F5"></path><path id="Vector_119" d="M353.478 249.56C353.474 249.638 353.461 249.714 353.439 249.788C353.392 249.961 353.337 250.181 353.274 250.456C353.109 251.06 352.888 251.924 352.597 253.023C351.991 255.285 351.11 258.52 350.025 262.58L349.978 262.737L349.836 262.666L338.737 257.358L338.957 257.295C336.117 261.331 332.971 265.815 329.612 270.605L329.47 270.801L329.305 270.628L320.353 261.535L318.466 259.627H318.717L306.619 267.204L306.446 267.314L306.344 267.142L299.815 255.63L300.019 255.709L287.575 259.988L287.457 260.028L287.417 259.91C286.237 256.502 285.301 253.793 284.656 251.916C284.35 251.005 284.106 250.291 283.94 249.788C283.862 249.56 283.807 249.38 283.76 249.239C283.734 249.179 283.718 249.115 283.712 249.05C283.747 249.106 283.774 249.167 283.791 249.231L284.003 249.765C284.184 250.267 284.444 250.966 284.79 251.869C285.459 253.738 286.434 256.431 287.661 259.831L287.504 259.753L299.901 255.41L300.035 255.363L300.106 255.489L306.674 266.969L306.399 266.898L318.497 259.305L318.631 259.219L318.749 259.337C319.373 259.975 320.002 260.611 320.637 261.245L329.612 270.345H329.305L338.698 257.067L338.776 256.949L338.91 257.012L349.97 262.399L349.789 262.485L352.479 252.96L353.219 250.409C353.305 250.142 353.368 249.922 353.423 249.757C353.434 249.689 353.452 249.623 353.478 249.56V249.56Z" fill="#F5F5F5"></path><g id="Group_27"><path id="Vector_120" d="M345.525 194.783C343.947 194.948 342.352 194.787 340.839 194.31C339.326 193.833 337.928 193.051 336.731 192.011C339.594 193.456 343.409 191.469 344.424 188.431C345.439 185.392 344.605 179.73 342.104 177.72C340.902 176.766 339.496 176.102 337.995 175.781C336.494 175.459 334.938 175.489 333.451 175.867C330.501 176.652 327.378 181.136 326.41 184.026L326.465 184.112C326.017 183.931 325.553 183.766 325.097 183.609C321.833 182.458 318.355 182.037 314.91 182.377C311.455 182.734 308.2 184.165 305.604 186.468L325.608 218.56C329.242 218.246 332.46 215.796 334.363 212.694C336.267 209.592 336.998 205.894 337.179 202.258C337.227 201.34 337.219 200.421 337.179 199.502L343.606 200.531C342.453 198.986 341 197.688 339.335 196.715C340.437 197.109 341.637 197.133 342.754 196.785C343.872 196.436 344.844 195.733 345.525 194.783V194.783Z" fill="#263238"></path><g id="Group_28"><g id="Group_29"><g id="Group_30"><path id="Vector_121" d="M320.259 244.59C322.87 244.535 325.357 243.469 327.195 241.617C329.033 239.765 330.078 237.272 330.108 234.665L330.572 194.736C330.595 193.939 330.314 193.162 329.785 192.565C329.256 191.967 328.52 191.592 327.724 191.517L310.827 187.253C305.408 186.687 301.82 193.33 301.474 198.748C301.097 204.771 300.869 212.137 301.585 216.636C303.024 225.666 309.962 226.844 309.962 226.844C309.962 226.844 309.962 230.338 309.962 234.618C309.968 235.951 310.24 237.269 310.761 238.496C311.283 239.723 312.044 240.834 313 241.765C313.957 242.695 315.089 243.426 316.331 243.915C317.573 244.404 318.9 244.642 320.235 244.614L320.259 244.59Z" fill="#FFBE9D"></path><g id="Group_31"><path id="Vector_122" d="M304.983 204.598C304.981 204.901 305.097 205.193 305.307 205.412C305.517 205.63 305.804 205.758 306.108 205.768C306.255 205.78 306.404 205.762 306.544 205.716C306.685 205.669 306.815 205.595 306.926 205.498C307.038 205.401 307.128 205.282 307.193 205.149C307.258 205.016 307.295 204.872 307.303 204.724C307.308 204.422 307.193 204.13 306.984 203.911C306.775 203.693 306.489 203.564 306.186 203.554C306.038 203.542 305.889 203.56 305.748 203.607C305.607 203.653 305.477 203.727 305.365 203.824C305.253 203.921 305.161 204.04 305.096 204.173C305.03 204.306 304.992 204.45 304.983 204.598V204.598Z" fill="#263238"></path><path id="Vector_123" d="M303.048 202.58C303.189 202.737 304.07 202.086 305.321 202.086C306.572 202.086 307.484 202.714 307.618 202.565C307.752 202.416 307.539 202.219 307.138 201.929C306.596 201.559 305.954 201.362 305.297 201.363C304.647 201.362 304.013 201.568 303.488 201.952C303.134 202.243 303.048 202.518 303.048 202.58Z" fill="#263238"></path></g><g id="Group_32"><path id="Vector_124" d="M316.869 204.598C316.864 204.902 316.98 205.195 317.191 205.414C317.401 205.633 317.69 205.76 317.994 205.768C318.142 205.78 318.29 205.762 318.431 205.716C318.572 205.67 318.703 205.596 318.815 205.498C318.927 205.401 319.018 205.283 319.084 205.15C319.15 205.017 319.188 204.872 319.197 204.724C319.199 204.421 319.083 204.129 318.873 203.911C318.663 203.692 318.375 203.564 318.072 203.554C317.924 203.541 317.775 203.558 317.633 203.604C317.492 203.65 317.361 203.724 317.249 203.822C317.136 203.919 317.045 204.038 316.98 204.171C316.914 204.305 316.877 204.45 316.869 204.598Z" fill="#263238"></path><path id="Vector_125" d="M315.358 202.816C315.5 202.965 316.381 202.321 317.632 202.321C318.882 202.321 319.795 202.949 319.929 202.792C320.062 202.635 319.85 202.455 319.449 202.164C318.908 201.791 318.265 201.594 317.608 201.599C316.958 201.595 316.324 201.798 315.799 202.18C315.413 202.478 315.288 202.745 315.358 202.816Z" fill="#263238"></path></g><path id="Vector_126" d="M310.82 212.066C310.161 211.86 309.479 211.736 308.79 211.697C308.475 211.697 308.176 211.603 308.121 211.383C308.091 211.054 308.166 210.725 308.334 210.441L309.278 208.014C310.584 204.567 311.535 201.732 311.394 201.677C311.252 201.622 310.08 204.379 308.766 207.834L307.862 210.268C307.666 210.653 307.607 211.093 307.697 211.516C307.741 211.63 307.813 211.733 307.904 211.814C307.996 211.896 308.105 211.955 308.224 211.987C308.401 212.035 308.583 212.059 308.766 212.058C309.448 212.148 310.138 212.15 310.82 212.066V212.066Z" fill="#263238"></path><path id="Vector_127" d="M309.962 226.82C314.224 226.885 318.421 225.768 322.084 223.593C322.084 223.593 319.142 229.796 310.08 228.948L309.962 226.82Z" fill="#EB996E"></path><path id="Vector_128" d="M311.354 215.066C311.592 214.768 311.901 214.535 312.254 214.39C312.606 214.244 312.989 214.19 313.368 214.233C313.645 214.261 313.914 214.346 314.157 214.48C314.4 214.615 314.614 214.798 314.784 215.018C314.952 215.225 315.052 215.479 315.07 215.744C315.088 216.01 315.024 216.275 314.886 216.502C314.686 216.726 314.423 216.884 314.132 216.959C313.84 217.033 313.534 217.019 313.25 216.919C312.67 216.705 312.136 216.382 311.677 215.969C311.536 215.87 311.416 215.744 311.323 215.599C311.277 215.531 311.252 215.45 311.252 215.368C311.252 215.285 311.277 215.205 311.323 215.136" fill="#EB996E"></path><path id="Vector_129" d="M314.501 212.922C314.296 212.922 314.296 214.265 313.132 215.23C311.968 216.196 310.528 216.016 310.521 216.228C310.513 216.44 310.843 216.495 311.449 216.51C312.247 216.511 313.021 216.233 313.636 215.725C314.225 215.242 314.603 214.55 314.69 213.793C314.745 213.252 314.587 212.922 314.501 212.922Z" fill="#263238"></path></g><path id="Vector_130" d="M314.792 200.633C314.918 200.971 316.161 200.814 317.632 200.986C319.103 201.159 320.283 201.56 320.471 201.261C320.558 201.112 320.353 200.798 319.881 200.476C319.242 200.074 318.52 199.822 317.77 199.739C317.019 199.656 316.259 199.744 315.547 199.997C315.012 200.209 314.737 200.476 314.792 200.633Z" fill="#263238"></path><path id="Vector_131" d="M303.252 200.28C303.472 200.562 304.33 200.28 305.368 200.28C306.407 200.28 307.28 200.476 307.476 200.178C307.571 200.028 307.429 199.746 307.044 199.479C306.535 199.149 305.935 198.987 305.329 199.015C304.719 199.026 304.128 199.227 303.638 199.589C303.276 199.856 303.158 200.146 303.252 200.28Z" fill="#263238"></path></g><path id="Vector_132" d="M329.565 205.965C329.931 205.767 330.345 205.674 330.761 205.695C331.177 205.716 331.58 205.85 331.925 206.083C332.761 206.57 333.403 207.33 333.742 208.235C334.081 209.141 334.096 210.135 333.785 211.05C333.475 211.966 332.857 212.746 332.036 213.258C331.215 213.771 330.242 213.985 329.282 213.864" fill="#FFBE9D"></path><path id="Vector_133" d="M330.202 211.171C330.202 211.108 330.548 211.241 330.989 211.045C331.261 210.891 331.482 210.66 331.622 210.38C331.762 210.1 331.816 209.785 331.775 209.475C331.774 209.166 331.682 208.863 331.51 208.606C331.338 208.349 331.093 208.149 330.808 208.03C330.351 207.841 330.021 207.936 330.021 207.865C330.021 207.794 330.328 207.582 330.926 207.716C331.272 207.798 331.581 207.991 331.807 208.265C332.08 208.602 332.238 209.018 332.255 209.451C332.303 209.846 332.218 210.246 332.012 210.587C331.807 210.929 331.494 211.192 331.122 211.336C330.485 211.516 330.155 211.202 330.202 211.171Z" fill="#EB996E"></path></g><path id="Vector_134" d="M332.672 213C332.672 213 332.829 213.087 333.089 213.291L334.198 214.17L338.131 217.484L338.265 217.594L338.155 217.727C336.7 219.471 335.079 221.654 333.262 223.931C332.845 224.449 332.436 224.951 332.035 225.423L331.697 225.815V225.297C331.539 221.622 331.405 218.363 331.335 216.023C331.335 214.916 331.288 213.99 331.272 213.275C331.241 212.941 331.241 212.604 331.272 212.27C331.35 212.597 331.393 212.931 331.398 213.267C331.445 213.982 331.508 214.901 331.586 216.016C331.728 218.371 331.901 221.599 332.082 225.281L331.728 225.156L332.939 223.679C334.757 221.402 336.393 219.235 337.887 217.5V217.743L334.072 214.32L333.018 213.385C332.889 213.27 332.773 213.141 332.672 213V213Z" fill="#455A64"></path><path id="Vector_135" d="M314.367 183.303C312.149 183.323 309.938 183.565 307.767 184.026C305.585 184.492 303.596 185.609 302.064 187.229C301.31 188.046 300.772 189.037 300.497 190.113C300.222 191.189 300.22 192.316 300.491 193.393C300.8 194.459 301.466 195.387 302.378 196.022C303.29 196.657 304.393 196.959 305.502 196.88C307.17 196.66 308.766 195.427 310.379 195.914C311.992 196.401 312.739 198.23 314.312 198.521C315.885 198.811 317.231 197.421 318.788 197.28C320.519 197.131 322.013 198.544 322.784 200.099C323.555 201.654 323.846 203.397 324.617 204.944C324.83 205.459 325.151 205.923 325.558 206.305C325.965 206.687 326.449 206.978 326.977 207.158C327.476 207.261 327.993 207.243 328.484 207.106C328.975 206.97 329.426 206.718 329.801 206.373C330.54 205.669 331.105 204.803 331.453 203.845C332.27 201.839 332.612 199.671 332.45 197.512C332.289 195.352 331.63 193.259 330.524 191.396C329.418 189.534 327.895 187.951 326.075 186.773C324.255 185.596 322.186 184.854 320.031 184.607" fill="#263238"></path><path id="Vector_136" d="M336.424 192.899C336.353 192.899 336.141 192.168 335.59 191.061C334.112 188.174 331.615 185.936 328.581 184.779C327.425 184.34 326.662 184.206 326.67 184.135C326.678 184.065 326.875 184.135 327.221 184.135C327.718 184.204 328.207 184.317 328.684 184.473C330.263 184.994 331.716 185.839 332.947 186.954C334.186 188.065 335.175 189.424 335.85 190.943C336.058 191.398 336.221 191.871 336.338 192.357C336.397 192.531 336.426 192.714 336.424 192.899V192.899Z" fill="#E8505B"></path><path id="Vector_137" d="M343.346 179.668C342.64 179.382 341.911 179.156 341.168 178.992C339.359 178.686 337.5 178.96 335.858 179.777C334.229 180.627 332.825 181.848 331.759 183.342C330.918 184.481 330.524 185.274 330.462 185.243C330.499 185.035 330.574 184.835 330.682 184.654C330.923 184.142 331.201 183.648 331.516 183.177C332.552 181.585 333.986 180.288 335.677 179.416C337.377 178.558 339.32 178.306 341.183 178.702C341.747 178.822 342.29 179.023 342.796 179.298C343.166 179.503 343.362 179.62 343.346 179.668Z" fill="#455A64"></path><path id="Vector_138" d="M334.646 190.276C334.747 190.892 334.747 191.521 334.646 192.137C334.488 193.633 334.106 195.096 333.514 196.479C332.924 197.86 332.129 199.144 331.154 200.288C330.774 200.782 330.314 201.21 329.793 201.552C331.144 199.965 332.278 198.206 333.168 196.322C333.919 194.379 334.416 192.346 334.646 190.276Z" fill="#455A64"></path><path id="Vector_139" d="M334.906 190.472C335.01 190.63 335.085 190.806 335.126 190.99C335.29 191.473 335.408 191.97 335.48 192.475C335.736 194.153 335.653 195.866 335.237 197.512C334.821 199.158 334.08 200.705 333.057 202.062C332.751 202.472 332.409 202.853 332.035 203.201C331.767 203.452 331.618 203.578 331.594 203.554C331.571 203.531 332.106 202.942 332.821 201.889C333.747 200.524 334.431 199.01 334.843 197.414C335.238 195.812 335.358 194.155 335.197 192.514C335.063 191.257 334.835 190.488 334.906 190.472Z" fill="#455A64"></path></g><g id="Group_33"><path id="Vector_140" d="M358.709 192.53C357.843 192.802 357.106 193.383 356.641 194.162C356.175 194.941 356.013 195.864 356.184 196.755C356.355 197.645 356.849 198.442 357.57 198.994C358.292 199.545 359.191 199.813 360.098 199.745C361.004 199.678 361.854 199.281 362.485 198.629C363.117 197.977 363.487 197.116 363.524 196.209C363.562 195.303 363.264 194.414 362.688 193.713C362.112 193.011 361.298 192.545 360.401 192.404" fill="#EBEBEB"></path><path id="Vector_141" d="M369.344 177.1C368.348 177.411 367.502 178.077 366.966 178.971C366.43 179.865 366.241 180.925 366.437 181.948C366.632 182.972 367.197 183.888 368.025 184.523C368.853 185.157 369.885 185.466 370.926 185.39C371.967 185.315 372.944 184.86 373.671 184.112C374.398 183.364 374.824 182.376 374.869 181.335C374.913 180.294 374.573 179.273 373.913 178.466C373.253 177.659 372.318 177.123 371.287 176.958" fill="#EBEBEB"></path><g id="Group_34"><path id="Vector_142" d="M392.054 109.099C384.975 108.502 377.746 110.089 372.861 115.287C370.434 117.916 368.625 121.052 367.563 124.467C366.502 127.881 366.216 131.489 366.725 135.027C359.158 138.168 355.036 147.779 357.97 155.443C360.904 163.107 370.422 167.457 378.147 164.733C379.894 169.15 382.764 173.037 386.474 176.009C390.184 178.982 394.607 180.938 399.305 181.685C404.004 182.432 408.816 181.943 413.268 180.267C417.719 178.592 421.657 175.787 424.691 172.129C432.109 173.802 440.424 173.7 446.717 169.334C453.01 164.968 455.779 155.404 451.028 149.468C459.578 147.387 463.92 136.731 461.388 128.314C458.855 119.896 451.256 113.866 443.154 110.45C437.797 108.188 431.11 107.011 426.54 110.599C424.701 107.776 422.213 105.432 419.283 103.763C416.353 102.095 413.066 101.149 409.696 101.005C406.326 100.862 402.97 101.524 399.908 102.937C396.846 104.351 394.167 106.474 392.094 109.131" fill="#F5F5F5"></path><path id="Vector_143" d="M392.054 109.099C392.054 109.099 392.196 108.911 392.487 108.55C392.918 108.02 393.378 107.514 393.864 107.034C395.762 105.17 397.992 103.676 400.44 102.629C402.213 101.862 404.081 101.334 405.993 101.059C408.283 100.74 410.611 100.812 412.876 101.271C415.498 101.797 418 102.804 420.255 104.239C422.801 105.86 424.975 108.001 426.634 110.521H426.43C428.373 109.059 430.731 108.251 433.163 108.212C435.743 108.165 438.31 108.574 440.747 109.421C443.335 110.297 445.826 111.436 448.18 112.821C450.68 114.261 452.992 116.004 455.063 118.012C457.255 120.114 459.058 122.586 460.389 125.314C461.049 126.738 461.556 128.228 461.899 129.759C462.212 131.329 462.32 132.934 462.221 134.533C462.025 137.834 460.964 141.026 459.146 143.791C458.198 145.193 457.017 146.422 455.653 147.426C454.263 148.45 452.691 149.202 451.02 149.64L451.122 149.334C452.154 150.649 452.877 152.179 453.238 153.81C453.595 155.468 453.637 157.178 453.364 158.851C452.782 162.289 451.131 165.457 448.644 167.905C446.031 170.336 442.789 171.99 439.283 172.679C435.734 173.403 432.086 173.512 428.499 173.001C427.185 172.836 425.887 172.577 424.613 172.31L424.817 172.239C422.498 175.056 419.637 177.38 416.404 179.076C413.17 180.772 409.63 181.806 405.991 182.115C402.351 182.425 398.687 182.004 395.212 180.878C391.738 179.753 388.525 177.945 385.761 175.561C382.318 172.656 379.634 168.959 377.942 164.787L378.178 164.89C376.003 165.588 373.706 165.827 371.434 165.59C369.161 165.354 366.963 164.647 364.979 163.515C363.092 162.499 361.438 161.102 360.12 159.414C358.803 157.726 357.851 155.783 357.325 153.708C356.437 149.805 356.996 145.712 358.898 142.189C360.581 138.937 363.329 136.359 366.686 134.886L366.607 135.035C366.157 131.924 366.323 128.755 367.095 125.707C368.08 121.764 370.056 118.137 372.837 115.169C373.644 114.329 374.526 113.564 375.472 112.884C377.124 111.697 378.953 110.778 380.892 110.159C384.507 109.05 388.31 108.684 392.07 109.084C392.07 109.084 391.818 109.084 391.331 109.084C390.843 109.084 390.119 109.029 389.16 109.029C386.363 109.03 383.585 109.467 380.924 110.324C379.003 110.949 377.193 111.871 375.559 113.057C374.625 113.732 373.756 114.491 372.963 115.326C372.116 116.24 371.343 117.22 370.65 118.255C369.121 120.559 367.993 123.105 367.315 125.785C366.566 128.802 366.411 131.936 366.859 135.012V135.114L366.756 135.161C363.47 136.62 360.781 139.154 359.134 142.346C357.261 145.799 356.703 149.813 357.561 153.645C358.098 155.678 359.054 157.576 360.368 159.219C361.681 160.862 363.324 162.213 365.191 163.186C367.132 164.289 369.282 164.978 371.505 165.208C373.727 165.438 375.973 165.204 378.1 164.521L378.265 164.466L378.336 164.63C380.058 168.824 382.783 172.533 386.273 175.432C389.763 178.331 393.911 180.333 398.355 181.262C403.154 182.151 408.102 181.759 412.701 180.127C417.299 178.494 421.384 175.679 424.542 171.964L424.621 171.87H424.739C426.005 172.137 427.287 172.396 428.593 172.553C432.13 173.055 435.727 172.949 439.228 172.239C442.663 171.571 445.84 169.955 448.4 167.575C450.821 165.188 452.426 162.099 452.986 158.749C453.285 157.149 453.249 155.504 452.879 153.919C452.51 152.334 451.815 150.842 450.839 149.538L450.65 149.303L450.949 149.224C452.569 148.795 454.095 148.068 455.449 147.081C456.76 146.084 457.893 144.874 458.8 143.5C460.586 140.794 461.628 137.666 461.82 134.431C461.927 132.854 461.824 131.269 461.513 129.719C461.18 128.218 460.684 126.756 460.035 125.361C458.727 122.667 456.954 120.224 454.796 118.145C452.748 116.155 450.459 114.427 447.983 113.002C445.655 111.621 443.191 110.485 440.629 109.61C438.228 108.773 435.698 108.363 433.156 108.4C430.782 108.43 428.479 109.21 426.579 110.63L426.461 110.725L426.375 110.599C423.249 105.875 418.376 102.58 412.821 101.435C410.581 100.972 408.277 100.89 406.009 101.192C401.464 101.836 397.234 103.881 393.911 107.042C393.274 107.67 392.802 108.173 392.511 108.526C392.22 108.879 392.054 109.099 392.054 109.099Z" fill="#263238"></path><path id="Vector_144" d="M440.707 133.575C440.707 133.912 426.752 134.187 409.549 134.187C392.345 134.187 378.399 133.912 378.399 133.575C378.399 133.237 392.345 132.962 409.549 132.962C426.752 132.962 440.707 133.237 440.707 133.575Z" fill="#B3CB51"></path><path id="Vector_145" d="M440.707 140.359C440.707 140.697 426.752 140.972 409.549 140.972C392.345 140.972 378.399 140.697 378.399 140.359C378.399 140.021 392.345 139.739 409.549 139.739C426.752 139.739 440.707 139.982 440.707 140.359Z" fill="#B3CB51"></path><path id="Vector_146" d="M440.707 147.073C440.707 147.41 426.752 147.685 409.549 147.685C392.345 147.685 378.399 147.41 378.399 147.073C378.399 146.735 392.345 146.46 409.549 146.46C426.752 146.46 440.707 146.735 440.707 147.073Z" fill="#B3CB51"></path><path id="Vector_147" d="M440.707 153.818C440.707 154.156 426.752 154.43 409.549 154.43C392.345 154.43 378.399 154.156 378.399 153.818C378.399 153.48 392.345 153.205 409.549 153.205C426.752 153.205 440.707 153.48 440.707 153.818Z" fill="#B3CB51"></path></g></g></g></g></g><defs><clipPath id="clip0"><rect width="551" height="341" fill="white"></rect></clipPath></defs></svg> 